<?xml version="1.0" encoding="utf-8"?>
<!-- Generator: Adobe Illustrator 27.5.0, SVG Export Plug-In . SVG Version: 6.00 Build 0)  -->
<svg version="1.1" xmlns="http://www.w3.org/2000/svg" xmlns:xlink="http://www.w3.org/1999/xlink" x="0px" y="0px"
	 viewBox="0 0 500 500" style="enable-background:new 0 0 500 500;" xml:space="preserve">
<g id="Background_Complete">
	<g>
		<g>
			<g>
				<g>
					<path style="fill:#F5F5F5;" d="M77.073,445.614c0.868-3.442-1.406-6.88-3.946-9.36c-2.54-2.48-5.574-4.697-6.907-7.987
						c-2.16-5.33,0.664-12.263-2.996-16.7c-2.153-2.61-5.991-3.466-7.904-6.256c-1.003-1.464-1.336-3.267-1.736-4.996
						c-2.045-8.818-6.511-17.061-12.779-23.59c-0.389,7.865,1.39,15.826,5.091,22.777c1.487,2.794,3.31,5.516,3.815,8.64
						c0.821,5.074-1.984,10.322-0.708,15.301c1.459,5.695,7.887,9.475,8.224,15.344c0.285,4.962-4.016,9.343-3.665,14.3
						c0.149,2.111,1.141,4.066,2.242,5.873c3.874,6.358,9.536,10.72,18.08,10.529l10.468,0.307L77.073,445.614z"/>
				</g>
			</g>
		</g>
		<g>
			<g>
				<g>
					<g>
						<g>
							<g>
								<path style="fill:#E0E0E0;" d="M86.471,470.059c0,0,0.999,0.227,2.881-0.079c0.937-0.142,2.09-0.398,3.396-0.875
									c1.298-0.483,2.775-1.169,4.187-2.324c0.677-0.6,1.354-1.337,1.715-2.312c0.355-0.971,0.415-2.036,0.475-3.13
									c0.05-1.094,0.044-2.233,0.225-3.387c0.17-1.153,0.616-2.288,1.26-3.373c1.222-2.175,3.259-4.238,3.904-7.185
									c0.7-2.899,0.168-6.029-0.336-9.172c-0.504-3.136-0.994-6.556,0.188-9.833c1.104-3.279,3.382-6.247,4.509-9.944
									c1.121-3.733,0.566-7.739,0.785-11.693c0.099-1.987,0.471-3.974,1.331-5.819c0.836-1.857,2.001-3.611,2.907-5.567
									c1.835-3.954,2.138-8.424,2.621-12.806c0.235-2.208,0.473-4.439,0.713-6.692c0.237-2.264,0.424-4.518,1.125-6.7
									c0.633-2.197,1.554-4.324,2.467-6.491c0.447-1.09,0.92-2.181,1.195-3.39c0.198-1.235,0.25-2.39,0.317-3.601
									c0.104-2.4-0.009-4.832-0.32-7.243c-0.298-2.414-0.748-4.806-1.021-7.225c-0.017-0.143-0.034-0.286-0.049-0.417
									l-0.057-0.482l-0.427,0.217c-2.235,1.135-4.144,2.818-5.607,4.787c-1.488,1.956-2.567,4.16-3.425,6.399
									c-1.723,4.507-2.325,9.223-3.181,13.724c-0.835,4.502-1.944,8.931-4.228,12.682c-1.136,1.87-2.514,3.58-3.718,5.405
									c-1.201,1.812-2.256,3.801-2.563,5.98c-0.594,4.431,1.867,8.306,1.382,12.229c-0.17,1.949-0.935,3.775-1.878,5.442
									c-0.941,1.677-2.049,3.234-3.1,4.799c-1.05,1.564-2.049,3.151-2.782,4.844c-0.746,1.688-1.151,3.492-1.256,5.254
									c-0.235,3.531,0.285,6.876,0.044,10.039c-0.195,3.167-1.29,6.044-2.534,8.616c-1.251,2.582-2.646,4.918-3.813,7.183
									c-0.587,1.131-1.128,2.236-1.568,3.344c-0.466,1.106-0.691,2.238-0.9,3.314c-0.331,2.172-0.286,4.193-0.043,5.974
									c0.476,3.582,1.827,6.157,3.038,7.601c0.278,0.386,0.599,0.658,0.852,0.912c0.247,0.263,0.491,0.441,0.69,0.579
									C86.261,469.928,86.471,470.059,86.471,470.059c0.046-0.053-0.864-0.529-2.038-1.993c-1.16-1.452-2.454-4.008-2.884-7.55
									c-0.22-1.76-0.244-3.756,0.1-5.888c0.215-1.054,0.445-2.163,0.907-3.236c0.439-1.082,0.986-2.181,1.578-3.3
									c1.176-2.245,2.586-4.572,3.865-7.17c1.269-2.586,2.407-5.519,2.623-8.768c0.257-3.229-0.248-6.587-0.001-10.035
									c0.11-1.725,0.506-3.444,1.233-5.078c0.716-1.639,1.701-3.195,2.751-4.748c1.05-1.554,2.171-3.117,3.139-4.83
									c0.968-1.701,1.778-3.602,1.965-5.665c0.481-4.179-1.962-8.079-1.357-12.198c0.291-2.038,1.292-3.94,2.477-5.72
									c1.185-1.791,2.57-3.502,3.74-5.42c2.356-3.858,3.483-8.373,4.327-12.893c0.864-4.529,1.468-9.196,3.16-13.609
									c0.842-2.194,1.898-4.342,3.336-6.231c1.415-1.903,3.242-3.506,5.371-4.589l-0.484-0.264
									c0.016,0.133,0.033,0.277,0.05,0.422c0.277,2.447,0.728,4.844,1.022,7.23c0.308,2.384,0.419,4.768,0.318,7.132
									c-0.062,1.167-0.126,2.392-0.302,3.493c-0.249,1.102-0.713,2.191-1.156,3.27c-0.907,2.159-1.841,4.318-2.486,6.563
									c-0.715,2.234-0.91,4.574-1.14,6.811c-0.237,2.255-0.472,4.487-0.705,6.697c-0.475,4.401-0.778,8.799-2.545,12.615
									c-0.873,1.9-2.036,3.659-2.897,5.577c-0.889,1.914-1.276,4.014-1.369,6.034c-0.205,4.04,0.343,7.985-0.729,11.569
									c-1.065,3.567-3.331,6.551-4.465,9.934c-1.215,3.419-0.684,6.951-0.167,10.077c0.523,3.148,1.049,6.212,0.39,8.999
									c-0.589,2.815-2.567,4.859-3.814,7.096c-0.649,1.11-1.112,2.311-1.278,3.507c-0.177,1.193-0.16,2.342-0.201,3.428
									c-0.048,1.078-0.104,2.136-0.429,3.045c-0.323,0.906-0.96,1.623-1.611,2.212c-1.36,1.138-2.81,1.839-4.087,2.335
									c-1.284,0.492-2.422,0.766-3.348,0.929c-0.926,0.173-1.646,0.201-2.128,0.218C86.721,470.05,86.471,470.059,86.471,470.059z
									"/>
							</g>
						</g>
					</g>
				</g>
				<g>
					<g>
						<g>
							<g>
								<path style="fill:#E0E0E0;" d="M118.839,346.576c-0.011-0.002-0.045,0.105-0.099,0.317c-0.06,0.251-0.134,0.561-0.226,0.944
									c-0.201,0.825-0.44,2.071-0.826,3.628c-0.402,1.552-1.342,3.312-2.141,5.479c-0.832,2.15-1.674,4.64-2.446,7.438
									c-0.782,2.795-1.472,5.899-2.193,9.223c-0.744,3.319-1.485,6.878-3.292,10.24c-0.848,1.705-1.804,3.431-2.561,5.318
									c-0.776,1.887-1.188,3.947-1.473,6.014c-0.479,4.148-1.216,8.362-2.184,12.674c-2.05,8.589-4.002,16.769-5.78,24.217
									c-1.822,7.423-3.464,14.113-4.848,19.751c-1.346,5.588-2.44,10.128-3.212,13.33c-0.355,1.536-0.636,2.75-0.84,3.632
									c-0.082,0.385-0.148,0.697-0.202,0.949c-0.042,0.215-0.058,0.326-0.047,0.329c0.011,0.003,0.049-0.103,0.113-0.312
									c0.071-0.248,0.159-0.555,0.267-0.932c0.234-0.875,0.556-2.078,0.963-3.602c0.821-3.19,1.986-7.712,3.419-13.278
									c1.424-5.629,3.113-12.307,4.987-19.717c1.795-7.451,3.766-15.633,5.836-24.224c0.969-4.306,1.713-8.598,2.18-12.727
									c0.279-2.053,0.673-4.038,1.417-5.869c0.729-1.839,1.67-3.556,2.519-5.279c1.822-3.426,2.568-7.093,3.282-10.398
									c0.697-3.333,1.358-6.427,2.107-9.217c0.739-2.791,1.544-5.278,2.338-7.43c0.758-2.159,1.666-3.94,2.043-5.544
									c0.353-1.595,0.546-2.828,0.705-3.668c0.065-0.388,0.118-0.702,0.16-0.957C118.84,346.69,118.851,346.578,118.839,346.576z"
									/>
							</g>
						</g>
					</g>
				</g>
			</g>
			<g>
				<g>
					<g>
						<g>
							<path style="fill:#E0E0E0;" d="M88.318,470.081c6.813-4.102,8.705-16.447,5.811-23.855
								c-2.894-7.408-7.924-14.162-8.738-22.073c-0.626-6.081,1.331-12.337-0.12-18.276c-1.958-8.015-9.829-14.187-9.785-22.437
								c0.024-4.629,2.633-8.999,2.397-13.623c-0.289-5.671-4.669-10.146-7.394-15.127c-4.171-7.625-4.494-16.666-5.954-25.233
								c-1.46-8.567-4.78-17.733-12.405-21.905c-1.081,7.287-2.969,12.284-2.311,22.144c0.236,3.541,4.39,10.299,4.994,18.059
								c0.361,4.638,0.619,9.284,0.929,13.925c0.301,4.517,0.62,9.116,2.264,13.335c1.259,3.232,3.27,6.164,4.211,9.503
								c1.77,6.282-0.47,13.11,0.966,19.477c1.217,5.394,4.981,10.021,5.776,15.493c1.117,7.689-3.818,15.712-1.227,23.037
								c1.286,3.635,4.298,6.542,5.17,10.298c0.676,2.914-0.025,6.007,0.589,8.935c0.989,4.717,10.018,8.333,14.827,8.014"/>
						</g>
					</g>
				</g>
				<g>
					<g>
						<g>
							<g>
								<path style="fill:#EBEBEB;" d="M54.057,314.769c-0.012,0.002,0,0.141,0.032,0.411c0.041,0.306,0.094,0.7,0.161,1.196
									c0.163,1.051,0.348,2.594,0.714,4.588c0.394,2.006,1.44,4.26,2.283,6.98c0.888,2.712,1.773,5.842,2.56,9.347
									c0.8,3.503,1.475,7.381,2.184,11.555c0.732,4.143,1.482,8.722,3.579,13.06c0.971,2.18,2.06,4.361,2.88,6.686
									c0.841,2.317,1.236,4.812,1.484,7.379c0.382,5.155,1.1,10.514,2.095,15.913c2.155,10.776,4.208,21.039,6.076,30.381
									c1.966,9.305,3.738,17.687,5.229,24.745c1.505,7.005,2.726,12.689,3.582,16.67c0.43,1.931,0.767,3.447,1.007,4.525
									c0.115,0.487,0.207,0.874,0.279,1.173c0.066,0.264,0.106,0.398,0.117,0.395c0.011-0.002-0.006-0.141-0.05-0.409
									c-0.055-0.303-0.125-0.695-0.213-1.187c-0.21-1.085-0.507-2.609-0.884-4.551c-0.805-3.991-1.955-9.69-3.373-16.714
									c-1.451-7.065-3.175-15.458-5.088-24.774c-1.851-9.339-3.885-19.6-6.02-30.373c-0.995-5.404-1.708-10.685-2.102-15.861
									c-0.254-2.581-0.665-5.151-1.534-7.526c-0.846-2.375-1.949-4.565-2.92-6.727c-2.085-4.274-2.834-8.745-3.595-12.903
									c-0.732-4.167-1.436-8.056-2.269-11.566c-0.82-3.512-1.742-6.648-2.667-9.359c-0.884-2.73-1.963-4.964-2.384-6.919
									c-0.4-1.958-0.631-3.516-0.836-4.553c-0.094-0.491-0.169-0.882-0.227-1.185C54.102,314.903,54.068,314.768,54.057,314.769z"
									/>
							</g>
						</g>
					</g>
				</g>
			</g>
		</g>
	</g>
	<g>
		<path style="fill:#EBEBEB;" d="M54.057,314.769c-0.012,0.002,0,0.141,0.032,0.411c0.041,0.306,0.094,0.7,0.161,1.196
									c0.163,1.051,0.348,2.594,0.714,4.588c0.394,2.006,1.44,4.26,2.283,6.98c0.888,2.712,1.773,5.842,2.56,9.347
									c0.8,3.503,1.475,7.381,2.184,11.555c0.732,4.143,1.482,8.722,3.579,13.06c0.971,2.18,2.06,4.361,2.88,6.686
									c0.841,2.317,1.236,4.812,1.484,7.379c0.382,5.155,1.1,10.514,2.095,15.913c2.155,10.776,4.208,21.039,6.076,30.381
									c1.966,9.305,3.738,17.687,5.229,24.745c1.505,7.005,2.726,12.689,3.582,16.67c0.43,1.931,0.767,3.447,1.007,4.525
									c0.115,0.487,0.207,0.874,0.279,1.173c0.066,0.264,0.106,0.398,0.117,0.395c0.011-0.002-0.006-0.141-0.05-0.409
									c-0.055-0.303-0.125-0.695-0.213-1.187c-0.21-1.085-0.507-2.609-0.884-4.551c-0.805-3.991-1.955-9.69-3.373-16.714
									c-1.451-7.065-3.175-15.458-5.088-24.774c-1.851-9.339-3.885-19.6-6.02-30.373c-0.995-5.404-1.708-10.685-2.102-15.861
									c-0.254-2.581-0.665-5.151-1.534-7.526c-0.846-2.375-1.949-4.565-2.92-6.727c-2.085-4.274-2.834-8.745-3.595-12.903
									c-0.732-4.167-1.436-8.056-2.269-11.566c-0.82-3.512-1.742-6.648-2.667-9.359c-0.884-2.73-1.963-4.964-2.384-6.919
									c-0.4-1.958-0.631-3.516-0.836-4.553c-0.094-0.491-0.169-0.882-0.227-1.185C54.102,314.903,54.068,314.768,54.057,314.769z"
									/>
	</g>
	<g>
		<g>
			<g>
				<path style="fill:#F5F5F5;" d="M39.984,120.712l77.126-1.742c0,0-7.101-12.257-26.912-10.002
					c-18.921,2.153-20.062-5.656-29.724-6.402S42.944,109.391,39.984,120.712z"/>
			</g>
		</g>
	</g>
	<g>
		<g>
			<g>
				<path style="fill:#F5F5F5;" d="M400.576,162.417h72.658c0,0-6.425-11.692-25.127-9.99c-17.862,1.625-18.77-5.752-27.852-6.66
					C411.171,144.857,403.603,151.821,400.576,162.417z"/>
			</g>
		</g>
	</g>
	<g>
		<g>
			<g>
				<path style="fill:#F5F5F5;" d="M83.906,82.436h55.426c0,0-4.901-8.919-19.168-7.621c-13.625,1.24-14.318-4.388-21.246-5.081
					C91.989,69.042,86.216,74.353,83.906,82.436z"/>
			</g>
		</g>
	</g>
	<g>
		<g>
			<g>
				<path style="fill:#F5F5F5;" d="M400.647,199.076h36.258c0,0-3.206-5.835-12.539-4.985c-8.913,0.811-9.367-2.87-13.899-3.324
					C405.934,190.314,402.158,193.789,400.647,199.076z"/>
			</g>
		</g>
	</g>
	<g>
		<g>
			<g>
				<path style="fill:#FAFAFA;" d="M382.518,98.716h36.257c0,0-3.206-5.835-12.539-4.986c-8.913,0.811-9.366-2.87-13.899-3.324
					C387.806,89.954,384.029,93.429,382.518,98.716z"/>
			</g>
		</g>
	</g>
</g>
<g id="Background_Simple" style="display:none;">
	<path style="display:inline;fill:#EBEBEB;" d="M446.127,221.138c-15.231-29.1-47.09-49.613-79.911-48.349
		c-18.861,0.726-38.54,8.011-55.977,0.786c-21.694-8.989-28.935-35.262-41.061-55.37c-23.093-38.294-71.95-57.887-115.891-49.584
		c-43.941,8.303-81.181,42.284-96.984,84.116c-15.804,41.833-11.071,90.127,9.163,130.005s55.049,71.453,95.068,91.407
		c6.253,3.118,12.628,5.963,19.105,8.547c47.79,19.067,100.275,23.052,150.65,12.572l23.346-4.857
		c33.811-7.034,63.934-26.618,83.173-55.298c3.986-5.943,7.489-12.208,10.426-18.765
		C460.66,286.373,461.358,250.238,446.127,221.138z"/>
</g>
<g id="Floor">
	<g>
		<path style="fill:#263238;" d="M474.435,470.14c0,0.144-100.939,0.26-225.424,0.26c-124.529,0-225.446-0.117-225.446-0.26
			s100.917-0.26,225.446-0.26C373.496,469.88,474.435,469.996,474.435,470.14z"/>
	</g>
</g>
<g id="Character_2">
	<g>
		<g>
			<path style="fill:#263238;" d="M405.346,293.797L405.346,293.797c-0.151-1.444-1.369-2.54-2.821-2.539l-21.352,0.022
				c-1.777,0.002-3.111,1.626-2.766,3.37l0,0c0.266,1.347,1.464,2.307,2.837,2.274l21.284,0.001
				C404.209,296.926,405.521,295.47,405.346,293.797z"/>
			<g>
				<g>
					<g>
						<g>
							<path style="fill:#263238;" d="M451.918,463.145c-0.545,3.721,2.03,7.18,5.751,7.725c3.721,0.545,7.18-2.03,7.725-5.751
								c0.545-3.721-2.03-7.18-5.751-7.725C455.921,456.849,452.463,459.423,451.918,463.145z"/>
						</g>
						<g>
							<polygon style="fill:#455A64;" points="457.244,464.169 453.089,455.59 455.266,454.204 459.294,463.16 							"/>
						</g>
						<g>
							<polygon style="fill:#263238;" points="418.776,358.542 392.986,291.255 388.09,293.713 413.084,360.386 							"/>
						</g>
						<g>
							<path style="fill:#F1A208;" d="M440.271,462.523l38.07-15.125c1.418-0.563,2.11-2.169,1.547-3.586l-37.892-95.38
								c-2.982-7.505-11.483-11.172-18.988-8.19l-16.026,6.367c-7.505,2.982-11.172,11.483-8.19,18.988l37.892,95.38
								C437.248,462.394,438.854,463.086,440.271,462.523z"/>
						</g>
						<g>
							<g>
								<path style="fill:#263238;" d="M436.599,461.452c0,0-0.057-0.202-0.196-0.584c-0.151-0.403-0.361-0.966-0.632-1.692
									c-0.576-1.506-1.411-3.687-2.482-6.485c-2.189-5.645-5.341-13.775-9.233-23.811c-3.921-10.052-8.586-22.01-13.764-35.287
									c-2.596-6.639-5.322-13.607-8.147-20.83c-0.707-1.806-1.42-3.627-2.139-5.464c-0.761-1.788-1.01-3.756-0.799-5.697
									c0.462-3.889,3.171-7.478,6.933-8.932c3.747-1.494,8.177-0.707,11.161,1.832c1.474,1.279,2.631,2.893,3.289,4.722
									c0.721,1.836,1.436,3.658,2.144,5.463c2.837,7.22,5.574,14.185,8.181,20.821c5.224,13.261,9.929,25.204,13.884,35.243
									c3.966,10.007,7.178,18.113,9.408,23.741c1.116,2.78,1.985,4.947,2.586,6.444c0.295,0.717,0.523,1.272,0.687,1.67
									c0.158,0.375,0.253,0.562,0.253,0.562s-0.057-0.202-0.196-0.584c-0.15-0.403-0.36-0.965-0.632-1.692
									c-0.576-1.506-1.411-3.687-2.482-6.485c-2.189-5.644-5.341-13.773-9.232-23.81c-3.921-10.052-8.586-22.011-13.765-35.289
									c-2.597-6.64-5.323-13.609-8.149-20.834c-0.707-1.806-1.42-3.628-2.139-5.465c-0.677-1.893-1.904-3.619-3.455-4.96
									c-3.14-2.676-7.81-3.507-11.758-1.932c-3.964,1.531-6.819,5.315-7.302,9.411c-0.226,2.037,0.05,4.136,0.839,5.984
									c0.721,1.836,1.435,3.657,2.144,5.462c2.836,7.219,5.572,14.182,8.179,20.817c5.223,13.259,9.928,25.202,13.883,35.24
									c3.966,10.007,7.178,18.113,9.409,23.742c1.116,2.781,1.986,4.948,2.586,6.445c0.295,0.717,0.523,1.273,0.687,1.67
									C436.504,461.265,436.599,461.452,436.599,461.452z"/>
							</g>
						</g>
						<g>
							<g>
								<path style="fill:#263238;" d="M434.138,393.669c0.08,0.255,5.064-1.707,11.13-4.383c6.068-2.677,10.92-5.054,10.84-5.309
									c-0.08-0.255-5.063,1.707-11.131,4.384C438.911,391.037,434.058,393.414,434.138,393.669z"/>
							</g>
						</g>
					</g>
				</g>
			</g>
			<g>
				<path style="fill:#FFBE9D;" d="M400.444,291.255l-4.458-8.802c-0.494-0.986-1.326-1.762-2.344-2.185l-7.012-2.913
					l-18.857-25.586l-1.763,19.587l12.031,12.396c0,0,7.525,15.858,13.676,15.052c0,0-0.207-2.328-1.233-4.095
					c-2.004-3.454,0.131-3.454,0.408-3.439l5.105,0.01L400.444,291.255z"/>
				<path style="fill:#F1A208;" d="M369.646,277.721c0.572,0.853,5.238,7.167,5.238,7.167l13.206-9.608l-4.799-4.688
					L369.646,277.721z"/>
			</g>
			<path style="fill:#FFBE9D;" d="M390.483,294.708c0,0,3.434,1.952,3.862,3.622v0.985l-4.117-0.598L390.483,294.708z"/>
			<path style="fill:#FFBE9D;" d="M395.09,296.592c-0.565-0.525-1.152-1.085-1.383-1.821c-0.231-0.736,0.048-1.692,0.78-1.935
				c0.715-0.237,1.445,0.276,2.004,0.78c0.707,0.638,1.38,1.313,2.014,2.023c0.525,0.588,1.056,1.33,0.867,2.094
				c-0.152,0.615-0.774,1.044-1.406,1.083c-0.632,0.039-1.251-0.259-1.712-0.694c-0.461-0.435-0.782-0.995-1.055-1.567"/>
			<path style="fill:#FFBE9D;" d="M398.581,296.293c-0.565-0.525-1.152-1.085-1.383-1.821c-0.231-0.736,0.048-1.692,0.78-1.935
				c0.715-0.237,1.445,0.275,2.004,0.78c0.707,0.637,1.38,1.313,2.014,2.023c0.525,0.587,1.056,1.33,0.867,2.094
				c-0.152,0.615-0.774,1.044-1.406,1.083c-0.632,0.039-1.251-0.259-1.712-0.694s-0.782-0.995-1.055-1.567"/>
			<g>
				<path style="fill:#EB996E;" d="M388.09,281.266c-0.011-0.119,0.89-0.072,1.915,0.818c0.487,0.504,0.802,1.194,1.198,1.944
					c0.366,0.759,0.75,1.686,0.678,2.743c-0.079,1.072-0.66,1.899-1.079,2.602c-0.44,0.682-0.671,1.386-0.823,1.983
					c-0.313,1.21-0.072,1.972-0.144,1.993c-0.059,0.044-0.454-0.759-0.217-2.066c0.112-0.638,0.323-1.406,0.771-2.154
					c0.41-0.729,0.915-1.504,0.973-2.396c0.065-0.896-0.26-1.755-0.593-2.5c-0.358-0.74-0.658-1.457-1.033-1.897
					c-0.399-0.419-0.861-0.69-1.153-0.854C388.28,281.314,388.097,281.303,388.09,281.266z"/>
			</g>
		</g>
		<g>
			<g>
				<polygon style="fill:#F5F5F5;" points="245.775,191.015 231.762,235.826 272.996,278.905 310.788,269.082 				"/>
				<g>
					<path style="fill:#263238;" d="M245.775,191.015c0,0,0.106,0.116,0.319,0.365c0.225,0.266,0.54,0.637,0.949,1.121
						c0.85,1.011,2.085,2.481,3.677,4.375c3.223,3.845,7.888,9.41,13.706,16.349c11.686,13.978,27.998,33.491,46.558,55.692
						l0.259,0.31l-0.392,0.102c-6.862,1.785-14.007,3.643-21.304,5.541c-5.606,1.456-11.122,2.889-16.487,4.283l-0.147,0.038
						l-0.105-0.109c-15.543-16.268-29.696-31.08-41.195-43.116l-0.084-0.087l0.036-0.114c4.347-13.728,7.898-24.94,10.368-32.739
						c1.227-3.853,2.184-6.863,2.842-8.927c0.322-1.004,0.569-1.775,0.742-2.314C245.686,191.266,245.775,191.015,245.775,191.015
						c-0.481,1.563-5.419,17.598-13.819,44.872l-0.047-0.201c11.521,12.014,25.701,26.801,41.274,43.041l-0.251-0.071
						c5.364-1.395,10.88-2.829,16.485-4.287c7.298-1.895,14.444-3.751,21.306-5.533l-0.132,0.412
						c-18.415-22.199-34.6-41.71-46.195-55.686c-5.795-7.005-10.442-12.622-13.652-16.503c-1.595-1.933-2.832-3.432-3.684-4.464
						c-0.413-0.503-0.73-0.89-0.956-1.167C245.887,191.162,245.775,191.015,245.775,191.015z"/>
				</g>
			</g>
			<path style="fill:#E0E0E0;" d="M247.057,220.574c1.962-3.385,7.076-4.392,10.175-2.004c2.58,1.988,3.764,5.771,6.865,6.768
				c2.244,0.721,4.708-0.331,7.028,0.085c2.715,0.487,4.731,2.952,5.516,5.596c0.785,2.644,0.573,5.468,0.353,8.218l-13.416,0.186
				L247.057,220.574z"/>
			<g>
				<polygon style="fill:#F5F5F5;" points="222.265,195.102 309.157,284.649 273.748,281.061 224.215,228.767 				"/>
				<g>
					<path style="fill:#263238;" d="M222.265,195.102c0.082,1.309,0.809,12.829,2.123,33.654l-0.047-0.109
						c12.665,13.34,29.977,31.576,49.592,52.237l-0.159-0.078c8.754,0.885,17.846,1.805,27.163,2.747
						c2.825,0.286,5.629,0.571,8.246,0.836l-0.213,0.44C260.647,234.822,224.182,197.086,222.265,195.102
						c1.924,1.974,38.547,39.559,87.079,89.365l0.498,0.512l-0.711-0.072c-2.617-0.265-5.422-0.549-8.247-0.835
						c-9.316-0.946-18.408-1.869-27.162-2.758l-0.094-0.01l-0.065-0.069c-19.568-20.706-36.838-38.981-49.473-52.35l-0.044-0.046
						l-0.003-0.063C222.943,207.939,222.334,196.411,222.265,195.102z"/>
				</g>
			</g>
			<path style="fill:#E0E0E0;" d="M256.271,230.692c-2.685,3.087-2.293,8.022,0.003,11.409c2.296,3.387,6.07,5.473,9.889,6.94
				c3.089,1.186,6.896,1.941,9.452-0.159"/>
			<path style="fill:#E0E0E0;" d="M251.749,225.825c0.163,0.749-0.776,1.304-1.538,1.231c-0.763-0.073-1.465-0.492-2.23-0.535
				c-2.09-0.117-3.226,2.36-4.934,3.571c-1.994,1.414-5.12,0.807-6.44-1.25c-1.138-1.773-1.11-4.388-2.909-5.486
				c-0.996-0.608-2.258-0.524-3.405-0.308c-1.146,0.216-2.308,0.546-3.46,0.364c-1.152-0.181-2.304-1.075-2.299-2.242l-0.622-0.975
				l-1.487-24.713L251.749,225.825z"/>
			<path style="fill:#E0E0E0;" d="M294.1,282.836c1.964,0.338,3.838-0.661,4.137-2.631c0.299-1.97-1.248-4.03-3.224-4.291
				c-1.77-0.234-3.602,0.794-5.306,0.263c-1.935-0.603-2.738-2.856-3.23-4.823c-0.492-1.966-1.174-4.224-3.054-4.982
				c-3.118-1.258-6.398,2.728-9.642,1.848c-2.407-0.652-3.341-3.545-5.227-5.177c-1.513-1.309-3.733-1.746-5.629-1.107
				c-1.896,0.639-3.011,1.711-3.423,3.669l14.345,15.13L294.1,282.836z"/>
		</g>
		<g>
			<g>
				<path style="fill:#F1A208;" d="M270.344,434.178l-3.57,20.583c0,0-22.12,3.284-23.151,7.023l39.66,8.356l6.879-31.842
					L270.344,434.178z"/>
				<g style="opacity:0.6;">
					<path style="fill:#FFFFFF;" d="M279.399,455.626c0.723,0.372,1.072,1.346,0.73,2.084c-0.342,0.738-1.33,1.101-2.06,0.742
						c-0.73-0.359-1.184-1.516-0.762-2.211c0.422-0.695,1.606-1.058,2.228-0.535"/>
				</g>
				<path style="opacity:0.6;fill:#FFFFFF;" d="M283.283,470.14l0.686-3.175l-38.356-6.862c0,0-1.928,0.396-1.99,1.682
					L283.283,470.14z"/>
				<g>
					<path style="fill:#263238;" d="M266.173,454.424c-0.034,0.195,0.915,0.487,1.737,1.31c0.843,0.802,1.158,1.744,1.352,1.705
						c0.186,0,0.142-1.219-0.871-2.198C267.388,454.253,266.169,454.237,266.173,454.424z"/>
				</g>
				<g>
					<path style="fill:#263238;" d="M261.651,455.268c-0.084,0.178,0.686,0.684,1.171,1.642c0.513,0.943,0.493,1.864,0.687,1.896
						c0.176,0.069,0.549-1.037-0.077-2.216C262.816,455.405,261.694,455.084,261.651,455.268z"/>
				</g>
				<g>
					<path style="fill:#263238;" d="M258.239,459.749c0.167,0.078,0.641-0.833,0.367-1.998c-0.266-1.168-1.091-1.778-1.207-1.634
						c-0.143,0.136,0.325,0.829,0.535,1.789C258.168,458.861,258.051,459.689,258.239,459.749z"/>
				</g>
				<g>
					<path style="fill:#263238;" d="M267.507,449.823c0.044,0.194,0.989,0.114,2.068,0.419c1.085,0.283,1.859,0.83,1.995,0.685
						c0.142-0.116-0.539-1.009-1.815-1.35C268.483,449.226,267.444,449.651,267.507,449.823z"/>
				</g>
			</g>
			<polygon style="opacity:0.3;" points="269.641,438.256 269,441.923 288.53,445.852 289.246,442.577 			"/>
			<g>
				<path style="fill:#263238;" d="M268.304,445.684c-0.019,0.08,0.721,0.36,1.989,0.408c0.631,0.023,1.39-0.025,2.213-0.2
					c0.411-0.088,0.837-0.208,1.268-0.365c0.208-0.079,0.449-0.152,0.698-0.341c0.257-0.157,0.487-0.645,0.306-1.012
					c-0.139-0.348-0.47-0.555-0.755-0.622c-0.29-0.071-0.54-0.062-0.767-0.054c-0.464,0.014-0.909,0.073-1.324,0.164
					c-0.83,0.185-1.538,0.491-2.085,0.816c-1.1,0.658-1.566,1.316-1.508,1.367c0.074,0.082,0.65-0.43,1.734-0.936
					c0.54-0.252,1.213-0.488,1.982-0.625c0.385-0.066,0.792-0.108,1.215-0.111c0.443-0.022,0.801,0.051,0.87,0.26
					c0.024,0.08,0.023,0.109-0.091,0.213c-0.115,0.094-0.308,0.169-0.513,0.248c-0.399,0.155-0.794,0.279-1.176,0.379
					c-0.764,0.198-1.475,0.292-2.075,0.331C269.082,445.683,268.323,445.578,268.304,445.684z"/>
			</g>
			<g>
				<path style="fill:#263238;" d="M268.498,446.015c0.062,0.044,0.593-0.569,0.928-1.808c0.164-0.615,0.258-1.383,0.187-2.232
					c-0.038-0.424-0.118-0.867-0.252-1.313c-0.15-0.441-0.323-1.025-1.056-1.27c-0.389-0.097-0.78,0.14-0.946,0.379
					c-0.188,0.24-0.262,0.465-0.357,0.685c-0.171,0.448-0.258,0.904-0.283,1.337c-0.053,0.871,0.145,1.646,0.416,2.23
					c0.559,1.191,1.318,1.593,1.348,1.531c0.085-0.084-0.511-0.6-0.896-1.712c-0.19-0.548-0.315-1.245-0.235-1.999
					c0.039-0.376,0.126-0.764,0.278-1.14c0.151-0.408,0.381-0.715,0.529-0.639c0.198,0.038,0.466,0.426,0.558,0.797
					c0.129,0.399,0.214,0.797,0.265,1.18c0.098,0.769,0.061,1.478-0.033,2.063C268.758,445.282,268.399,445.963,268.498,446.015z"/>
			</g>
		</g>
		<g>
			<g>
				<g>
					<path style="fill:#F1A208;" d="M400.664,435.432l-8.578-11.199l-0.445-0.581l-14.611,10.867l13.531,14.863l-0.495,15.043
						c-7.536,1.949-8.668,5.715-8.668,5.715l15.665-0.017l14.226-27.406L400.664,435.432z"/>
					<polygon style="opacity:0.6;fill:#FFFFFF;" points="411.288,442.717 397.063,470.123 381.398,470.14 383.16,467.784 
						395.898,467.07 409.028,441.168 					"/>
				</g>
				<g>
					<path style="fill:#263238;" d="M390.161,457.533c0.116,0.16,1.019-0.354,2.23-0.32c1.212-0.001,2.101,0.537,2.221,0.38
						c0.147-0.118-0.736-1.056-2.212-1.069C390.926,456.497,390.017,457.411,390.161,457.533z"/>
				</g>
				<g>
					<path style="fill:#263238;" d="M390.411,453.802c0.157,0.11,0.854-0.814,2.103-1.059c1.247-0.257,2.247,0.326,2.349,0.164
						c0.053-0.071-0.127-0.333-0.568-0.573c-0.431-0.239-1.145-0.421-1.917-0.266c-0.772,0.155-1.359,0.599-1.665,0.987
						C390.4,453.446,390.335,453.757,390.411,453.802z"/>
				</g>
				<g>
					<path style="fill:#263238;" d="M390.306,449.01c0.172,0.086,0.705-0.819,1.796-1.197c1.087-0.392,2.07-0.023,2.15-0.198
						c0.042-0.079-0.157-0.297-0.591-0.459c-0.426-0.162-1.102-0.234-1.789,0.008c-0.686,0.243-1.167,0.724-1.396,1.118
						C390.241,448.68,390.224,448.975,390.306,449.01z"/>
				</g>
				<g>
					<path style="fill:#263238;" d="M386.111,445.297c0.186,0.065,0.626-0.826,1.598-1.456c0.954-0.658,1.945-0.724,1.956-0.921
						c0.053-0.181-1.161-0.447-2.339,0.349C386.141,444.053,385.923,445.276,386.111,445.297z"/>
				</g>
				<g>
					<path style="fill:#263238;" d="M384.066,442.082c0.079,0.052,0.596-0.578,1.366-1.64c0.435-0.62,0.874-1.245,1.323-1.884
						c0.226-0.367,0.542-0.687,0.726-1.266c0.081-0.292,0.075-0.638-0.096-0.952c-0.16-0.332-0.602-0.542-0.946-0.494
						c-0.683,0.1-1.065,0.452-1.462,0.76c-0.383,0.33-0.698,0.705-0.951,1.088c-0.504,0.773-0.741,1.582-0.821,2.261
						c-0.152,1.386,0.302,2.174,0.356,2.139c0.121-0.026-0.135-0.827,0.125-2.061c0.132-0.609,0.392-1.317,0.865-1.982
						c0.238-0.33,0.523-0.648,0.859-0.928c0.329-0.267,0.759-0.56,1.08-0.59c0.155-0.006,0.23,0.034,0.296,0.142
						c0.065,0.115,0.085,0.284,0.042,0.444c-0.085,0.334-0.386,0.722-0.604,1.091c-0.407,0.667-0.805,1.319-1.2,1.965
						C384.359,441.305,383.986,442.03,384.066,442.082z"/>
				</g>
				<g>
					<path style="fill:#263238;" d="M383.506,442.548c0.074-0.005,0.014-0.828-0.835-1.77c-0.825-0.89-2.636-1.841-4.644-0.835
						c-0.143,0.123-0.256,0.346-0.243,0.56c0.008,0.217,0.101,0.378,0.189,0.496c0.186,0.243,0.391,0.364,0.562,0.493
						c0.364,0.255,0.738,0.464,1.108,0.632c0.739,0.338,1.457,0.508,2.061,0.574c1.218,0.13,1.951-0.106,1.936-0.182
						c-0.01-0.11-0.742-0.056-1.857-0.298c-0.555-0.122-1.203-0.326-1.865-0.665c-0.331-0.169-0.665-0.371-0.989-0.609
						c-0.164-0.125-0.33-0.241-0.405-0.353c-0.077-0.137-0.057-0.098-0.031-0.139c0.051-0.058,0.26-0.123,0.454-0.169
						c0.193-0.046,0.388-0.077,0.581-0.09c0.386-0.03,0.764,0.002,1.113,0.079c0.703,0.151,1.274,0.494,1.691,0.856
						C383.167,441.87,383.401,442.592,383.506,442.548z"/>
				</g>
				<path style="opacity:0.6;fill:#FFFFFF;" d="M398.792,442.249c0,1.026,0.832,1.858,1.858,1.858c1.026,0,1.858-0.832,1.858-1.858
					c0-1.026-0.832-1.858-1.858-1.858C399.624,440.391,398.792,441.223,398.792,442.249z"/>
			</g>
			<polygon style="opacity:0.3;" points="378.391,436.013 381.398,439.317 394.045,426.791 392.288,424.496 			"/>
		</g>
		<g>
			<g>
				<g>
					<g>
						<path style="fill:#F1A208;" d="M339.454,175.206c8.292-2.895,17.432-3.31,25.952-1.178c3.813,0.954,7.681,2.535,10.126,5.612
							c2.892,3.639,3.252,8.603,3.696,13.23c0.901,9.412,2.638,18.744,5.183,27.85c2.118,7.581,4.804,15.043,5.949,22.83
							c1.145,7.787,0.617,16.122-3.351,22.92c-6.116,10.479-19.125,15.114-31.257,15.316c-6.387,0.106-12.919-0.828-18.582-3.784
							c-5.663-2.955-10.368-8.13-11.75-14.366"/>
					</g>
					<g style="opacity:0.5;">
						<g>
							<path d="M339.454,175.206c8.292-2.895,17.432-3.31,25.952-1.178c3.813,0.954,7.681,2.535,10.126,5.612
								c2.892,3.639,3.252,8.603,3.696,13.23c0.901,9.412,2.638,18.744,5.183,27.85c2.118,7.581,4.804,15.043,5.949,22.83
								c1.145,7.787,0.617,16.122-3.351,22.92c-6.116,10.479-19.125,15.114-31.257,15.316c-6.387,0.106-12.919-0.828-18.582-3.784
								c-5.663-2.955-10.368-8.13-11.75-14.366"/>
						</g>
					</g>
				</g>
				<g>
					<g>
						<path style="fill:#E0E0E0;" d="M356.126,184.806c-0.077,0.089,1.675,1.192,3.47,3.893c0.907,1.335,1.801,3.042,2.707,4.991
							c0.919,1.94,1.869,4.133,3.226,6.263c1.359,2.122,3.076,3.923,5.013,5.016c1.921,1.128,4.035,1.399,5.678,1.111
							c1.663-0.266,2.878-0.995,3.547-1.634c0.345-0.312,0.572-0.597,0.704-0.801c0.134-0.204,0.195-0.315,0.176-0.328
							c-0.048-0.037-0.341,0.383-1.043,0.937c-0.691,0.555-1.871,1.178-3.449,1.374c-1.57,0.212-3.514-0.082-5.317-1.174
							c-1.813-1.059-3.449-2.791-4.767-4.85c-1.32-2.07-2.28-4.235-3.233-6.171c-0.939-1.944-1.894-3.665-2.869-4.995
							c-0.966-1.337-1.926-2.284-2.647-2.855C356.602,185.008,356.146,184.775,356.126,184.806z"/>
					</g>
				</g>
				<g>
					<g>
						<path style="fill:#E0E0E0;" d="M373.701,278.476c0.022-0.001,0.032-0.271,0.03-0.783c-0.01-0.581-0.022-1.323-0.038-2.241
							c-0.045-1.946-0.145-4.76-0.297-8.236c-0.303-6.952-0.851-16.552-1.681-27.137c-0.834-10.589-1.792-20.157-2.579-27.072
							c-0.392-3.457-0.733-6.252-0.993-8.181c-0.128-0.909-0.232-1.644-0.313-2.219c-0.078-0.507-0.13-0.771-0.152-0.768
							c-0.022,0.002-0.013,0.272,0.023,0.783c0.05,0.579,0.113,1.318,0.192,2.232c0.194,2.018,0.461,4.799,0.789,8.2
							c0.67,6.924,1.556,16.492,2.389,27.075c0.83,10.579,1.449,20.167,1.869,27.111c0.208,3.411,0.379,6.199,0.502,8.223
							c0.065,0.915,0.118,1.656,0.159,2.235C373.645,278.209,373.679,278.477,373.701,278.476z"/>
					</g>
				</g>
				<g>
					<g>
						<path style="fill:#E0E0E0;" d="M371.206,235.96c0.007,0.171,3.836,0.126,8.515-0.459c4.682-0.576,8.404-1.466,8.37-1.634
							c-0.036-0.182-3.794,0.421-8.449,0.994C374.989,235.442,371.196,235.775,371.206,235.96z"/>
					</g>
				</g>
				<g>
					<g>
						<path style="fill:#E0E0E0;" d="M374.301,235.868c-0.082-0.018-0.328,0.665-0.523,1.82c-0.096,0.578-0.176,1.266-0.206,2.049
							c-0.007,0.394,0.002,0.851,0.214,1.309c0.212,0.47,0.698,0.856,1.296,0.869c0.301,0.006,0.634-0.139,0.82-0.376
							c0.199-0.236,0.271-0.521,0.289-0.763c0.035-0.497-0.089-0.908-0.178-1.28c-0.194-0.757-0.441-1.416-0.684-1.951
							c-0.491-1.071-0.947-1.644-1.017-1.602c-0.084,0.047,0.225,0.693,0.593,1.77c0.182,0.539,0.375,1.187,0.53,1.919
							c0.075,0.37,0.163,0.749,0.127,1.087c-0.031,0.343-0.206,0.552-0.478,0.551c-0.675-0.016-0.946-0.807-0.918-1.53
							c-0.004-0.745,0.028-1.43,0.064-1.999C374.307,236.598,374.392,235.887,374.301,235.868z"/>
					</g>
				</g>
			</g>
			<g>
				<g>
					<path style="fill:#455A64;" d="M331.205,178.842l40.166-4.691c5.262-0.615,9.03-5.379,8.416-10.642l-0.87-7.451
						c-0.615-5.263-5.379-9.03-10.641-8.416l-40.166,4.691c-5.262,0.615-9.03,5.379-8.416,10.641l0.87,7.451
						C321.178,175.689,325.942,179.457,331.205,178.842z"/>
				</g>
				<g>
					<g>
						<path style="fill:#263238;" d="M367.613,148.273c0.006-0.019-0.122-0.084-0.383-0.166c-0.26-0.081-0.66-0.162-1.182-0.177
							c-1.031-0.034-2.612,0.29-4.114,1.427c-1.464,1.1-3.161,2.667-4.141,4.973c-1.02,2.26-1.354,5.031-1.139,7.835
							c0.164,2.838,1.19,5.485,2.704,7.437c1.507,1.973,3.484,3.209,5.249,3.779c1.773,0.588,3.317,0.613,4.337,0.476
							c0.514-0.058,0.905-0.155,1.164-0.234c0.259-0.081,0.391-0.133,0.386-0.155c-0.013-0.056-0.564,0.085-1.571,0.139
							c-1,0.058-2.483-0.038-4.164-0.656c-1.677-0.603-3.518-1.812-4.927-3.708c-1.415-1.882-2.375-4.394-2.534-7.124
							c-0.209-2.736,0.098-5.384,1.04-7.552c0.889-2.187,2.483-3.731,3.869-4.844c1.396-1.128,2.856-1.495,3.844-1.541
							C367.053,148.138,367.599,148.334,367.613,148.273z"/>
					</g>
				</g>
				<g>
					<path style="fill:#263238;" d="M344.655,150.303l6.194-0.613c-1.647,0.455-3.04,1.628-3.975,3.059
						c-0.935,1.43-1.442,3.105-1.704,4.793c-1.109,7.125,2.678,14.792,8.774,18.645l-4.984,0.665
						C348.959,176.852,334.659,164.075,344.655,150.303"/>
				</g>
			</g>
		</g>
		<g>
			<path style="fill:#263238;" d="M337.627,163.417c3.18,0.877,6.757,0.165,9.358-1.862c2.602-2.028,4.165-5.323,4.091-8.62
				c-0.07-3.079-1.462-6.217-0.505-9.145c0.657-2.01,2.342-3.577,2.907-5.615c0.843-3.042-0.996-6.117-2.753-8.74
				c-1.127-1.683-2.278-3.392-3.848-4.671c-1.571-1.278-3.653-2.085-5.634-1.665"/>
			<g>
				<path style="fill:#263238;" d="M309.233,123.37c0.171,2.324-1.364,4.401-2.91,6.144c-1.547,1.744-3.267,3.561-3.602,5.868
					c-0.592,4.088,3.41,7.883,2.584,11.93c-0.442,2.169-2.218,3.911-2.535,6.102c-0.306,2.119,0.83,4.193,2.237,5.807
					c1.408,1.613,3.123,2.958,4.368,4.7c1.312,1.835,2.033,4.013,2.975,6.063c0.942,2.05,2.209,4.084,4.192,5.16
					c2.981,1.617,7.156,0.856,9.442,3.362c2.209,2.421,4.916,2.804,7.638,4.63"/>
				<path style="fill:#263238;" d="M344.958,126.924c0.06-2.108-1.889-3.737-3.852-4.509c-1.962-0.772-4.143-1.063-5.893-2.241
					c-1.549-1.043-2.59-2.669-3.901-3.998c-3.217-3.261-8.239-4.613-12.658-3.407c-4.419,1.205-8.059,4.92-9.174,9.363
					c-0.754,3.002-0.239,6.552,2.127,8.547c2.747,2.315,6.818,1.801,10.338,1.081c3.519-0.72,7.502-1.431,10.441,0.636
					c1.772,1.246,2.788,3.274,3.871,5.15c1.083,1.876,2.443,3.792,4.491,4.497c2.048,0.705,4.83-0.513,4.91-2.678"/>
				<g>
					<g>
						<g>
							<g>
								<g>
									<g>
										<g>
											<g>
												<g>
													<g>
														<g>
															<g>
																<g>
																	<path style="fill:#FFBE9D;" d="M336.645,127.357c1.821,0.197,3.188,1.754,3.148,3.585l0,0l-2.105,47.638
																		c-0.088,5.626-8.312,8.788-14.336,8.647l0,0c-6.083-0.142-6.279-3.125-6.355-8.478
																		c-0.127-8.943-0.116-12.3-0.12-12.249c0,0-7.684-1.293-9.254-11.326c-0.781-4.989-0.512-13.166-0.076-19.85
																		c0.393-6.016,4.395-13.389,10.389-12.742L336.645,127.357z"/>
																</g>
															</g>
														</g>
													</g>
												</g>
											</g>
											<g>
												<g>
													<g>
														<g>
															<g>
																<g>
																	<g>
																		<path style="fill:#263238;" d="M309.448,141.057c-0.026,0.679,0.529,1.261,1.237,1.3
																			c0.707,0.04,1.303-0.477,1.328-1.157c0.025-0.679-0.529-1.262-1.236-1.301
																			C310.069,139.86,309.473,140.378,309.448,141.057z"/>
																	</g>
																</g>
															</g>
														</g>
													</g>
												</g>
												<g>
													<g>
														<g>
															<g>
																<g>
																	<g>
																		<g>
																			<path style="fill:#263238;" d="M309.312,139.584c0.159,0.168,1.135-0.551,2.519-0.544
																				c1.383-0.013,2.397,0.701,2.547,0.532c0.074-0.075-0.088-0.378-0.53-0.701c-0.435-0.322-1.176-0.635-2.039-0.633
																				c-0.862,0.003-1.588,0.319-2.006,0.643C309.378,139.206,309.233,139.509,309.312,139.584z"/>
																		</g>
																	</g>
																</g>
															</g>
														</g>
													</g>
												</g>
											</g>
											<g>
												<g>
													<g>
														<g>
															<g>
																<g>
																	<g>
																		<path style="fill:#263238;" d="M323.228,141.412c-0.026,0.679,0.529,1.261,1.237,1.301
																			c0.707,0.039,1.303-0.477,1.328-1.157c0.026-0.679-0.529-1.262-1.236-1.301
																			C323.849,140.215,323.253,140.733,323.228,141.412z"/>
																	</g>
																</g>
															</g>
														</g>
													</g>
												</g>
												<g>
													<g>
														<g>
															<g>
																<g>
																	<g>
																		<g>
																			<path style="fill:#263238;" d="M322.916,139.872c0.159,0.168,1.137-0.551,2.52-0.544
																				c1.382-0.013,2.397,0.701,2.547,0.532c0.074-0.075-0.086-0.378-0.53-0.701c-0.435-0.322-1.176-0.635-2.039-0.634
																				c-0.862,0.003-1.588,0.319-2.006,0.643C322.984,139.494,322.838,139.797,322.916,139.872z"/>
																		</g>
																	</g>
																</g>
															</g>
														</g>
													</g>
												</g>
											</g>
											<g>
												<g>
													<g>
														<g>
															<g>
																<g>
																	<g>
																		<path style="fill:#263238;" d="M317.87,150.125c0.007-0.079-0.853-0.229-2.247-0.411
																			c-0.353-0.037-0.688-0.108-0.747-0.349c-0.083-0.256,0.066-0.636,0.238-1.047c0.334-0.855,0.684-1.75,1.051-2.689
																			c1.46-3.828,2.518-6.977,2.363-7.034c-0.155-0.057-1.464,2.999-2.923,6.827c-0.351,0.944-0.688,1.844-1.007,2.705
																			c-0.135,0.401-0.366,0.856-0.186,1.387c0.095,0.264,0.354,0.456,0.58,0.518c0.226,0.07,0.425,0.074,0.6,0.085
																			C316.994,150.196,317.865,150.204,317.87,150.125z"/>
																	</g>
																</g>
															</g>
														</g>
													</g>
												</g>
											</g>
											<g>
												<g>
													<g>
														<g>
															<g>
																<g>
																	<path style="fill:#EB996E;" d="M316.878,166.502c0,0,6.746,0.45,13.439-3.553c0,0-3.274,6.882-13.309,5.921
																		L316.878,166.502z"/>
																</g>
															</g>
														</g>
													</g>
												</g>
											</g>
											<g>
												<g>
													<g>
														<g>
															<g>
																<g>
																	<path style="fill:#EB996E;" d="M318.448,153.462c0.499-0.657,1.372-1.016,2.238-0.921
																		c0.601,0.066,1.207,0.357,1.57,0.847c0.364,0.49,0.439,1.184,0.106,1.65c-0.375,0.525-1.155,0.644-1.815,0.455
																		c-0.66-0.189-1.228-0.625-1.767-1.06c-0.149-0.12-0.301-0.246-0.394-0.41c-0.093-0.164-0.112-0.379,0.003-0.515"/>
																</g>
															</g>
														</g>
													</g>
												</g>
											</g>
											<g>
												<g>
													<g>
														<g>
															<g>
																<g>
																	<g>
																		<path style="fill:#263238;" d="M321.941,151.092c-0.225-0.014-0.231,1.489-1.52,2.552
																			c-1.286,1.067-2.887,0.895-2.899,1.105c-0.021,0.094,0.356,0.293,1.032,0.312c0.663,0.024,1.632-0.187,2.42-0.837
																			c0.786-0.652,1.125-1.524,1.178-2.14C322.211,151.456,322.044,151.083,321.941,151.092z"/>
																	</g>
																</g>
															</g>
														</g>
													</g>
												</g>
											</g>
										</g>
									</g>
								</g>
								<g>
									<g>
										<g>
											<g>
												<g>
													<g>
														<path style="fill:#263238;" d="M322.299,137.448c0.136,0.376,1.518,0.201,3.141,0.401
															c1.628,0.167,2.936,0.645,3.152,0.308c0.096-0.161-0.131-0.516-0.66-0.881c-0.524-0.365-1.361-0.712-2.335-0.823
															c-0.975-0.109-1.867,0.044-2.46,0.283C322.541,136.974,322.24,137.269,322.299,137.448z"/>
													</g>
												</g>
											</g>
										</g>
									</g>
								</g>
								<g>
									<g>
										<g>
											<g>
												<g>
													<g>
														<path style="fill:#263238;" d="M309.829,135.579c0.243,0.315,1.197-0.009,2.344-0.022
															c1.146-0.053,2.117,0.216,2.341-0.112c0.098-0.16-0.054-0.475-0.478-0.773c-0.417-0.298-1.116-0.541-1.904-0.519
															c-0.788,0.023-1.471,0.307-1.871,0.628C309.856,135.102,309.723,135.426,309.829,135.579z"/>
													</g>
												</g>
											</g>
										</g>
									</g>
								</g>
							</g>
						</g>
					</g>
				</g>
				<path style="fill:#263238;" d="M343.648,160.353c-2.758,0.556-5.762-0.292-7.823-2.207s-3.125-4.85-2.772-7.641
					c0.312-2.463,1.64-4.969,0.786-7.3c-1.129-3.082-5.45-4.031-6.596-7.107c-0.666-1.788-0.068-3.879-0.824-5.631
					c-0.71-1.647-2.444-2.596-4.131-3.206c-1.687-0.61-3.496-1.031-4.912-2.132c-1.416-1.101-2.3-3.179-1.386-4.723
					c7.482,0.897,14.856,2.688,21.915,5.325c1.637,0.611,3.356,1.346,4.324,2.801c1.024,1.539,0.975,3.528,0.889,5.375
					c-0.42,9.005-0.84,18.01-1.261,27.016"/>
				<g>
					<path style="fill:#263238;" d="M349.055,168.688c-0.079,0.012,0.135-0.968-0.521-2.498c-0.321-0.757-0.888-1.612-1.711-2.444
						c-0.822-0.837-1.931-1.599-3.243-2.296c-1.305-0.711-2.814-1.356-4.356-2.24c-1.53-0.882-3.113-2.085-4.15-3.862
						c-0.516-0.879-0.838-1.929-0.84-3.01c-0.005-1.079,0.239-2.133,0.452-3.181c0.207-1.043,0.418-2.122,0.208-3.149
						c-0.181-1.037-0.899-1.896-1.852-2.436c-0.946-0.563-2.028-0.908-3.051-1.389c-1.013-0.474-2.038-1.148-2.594-2.169
						c-0.564-1.003-0.713-2.126-0.753-3.169c-0.037-1.053,0.03-2.066,0.017-3.043c-0.01-0.975-0.094-1.924-0.402-2.767
						c-0.302-0.844-0.834-1.557-1.521-2.056c-1.378-1.015-3.009-1.372-4.447-1.743c-1.449-0.361-2.784-0.792-3.784-1.501
						c-1.015-0.702-1.572-1.668-1.804-2.486c-0.236-0.832-0.124-1.527,0.035-1.942c0.171-0.418,0.346-0.584,0.346-0.584
						c0.025,0.015-0.114,0.206-0.246,0.618c-0.12,0.41-0.193,1.069,0.06,1.85c0.249,0.77,0.804,1.668,1.774,2.304
						c0.967,0.653,2.259,1.047,3.708,1.384c1.436,0.351,3.12,0.681,4.617,1.755c0.747,0.528,1.357,1.324,1.692,2.244
						c0.344,0.919,0.435,1.922,0.452,2.919c0.019,1-0.042,2.014,0,3.031c0.042,1.012,0.196,2.048,0.698,2.933
						c0.491,0.897,1.392,1.495,2.372,1.955c0.987,0.465,2.075,0.806,3.098,1.411c0.507,0.302,0.987,0.679,1.362,1.156
						c0.377,0.475,0.614,1.047,0.731,1.624c0.231,1.172-0.008,2.302-0.216,3.354c-0.219,1.055-0.455,2.078-0.454,3.076
						c-0.002,0.992,0.283,1.948,0.76,2.776c0.958,1.67,2.466,2.852,3.951,3.727c1.501,0.883,3.004,1.55,4.315,2.29
						c1.316,0.725,2.449,1.533,3.275,2.415c0.828,0.877,1.387,1.776,1.69,2.57c0.313,0.792,0.392,1.459,0.392,1.902
						c0.012,0.222-0.015,0.391-0.025,0.504C349.075,168.631,349.064,168.689,349.055,168.688z"/>
				</g>
				<g>
					<path style="fill:#263238;" d="M319.822,175.569c0.004,0.018-0.165,0.067-0.494,0.147c-0.164,0.046-0.37,0.081-0.617,0.105
						c-0.246,0.037-0.531,0.061-0.854,0.057c-1.277,0.032-3.22-0.306-5.155-1.619c-0.952-0.659-1.908-1.554-2.602-2.749
						c-0.725-1.186-1.074-2.641-1.338-4.122c-0.277-1.477-0.512-3.056-1.3-4.433c-0.781-1.385-2.235-2.308-3.543-3.491
						c-1.361-1.164-2.232-2.844-2.457-4.521c-0.244-1.682,0.13-3.382,0.927-4.711c0.772-1.329,1.684-2.435,2.096-3.678
						c0.435-1.231,0.509-2.477,0.426-3.593c-0.203-2.243-0.855-3.994-1.268-5.189c-0.433-1.197-0.689-1.855-0.652-1.871
						c0.016-0.007,0.101,0.149,0.246,0.452c0.145,0.304,0.351,0.755,0.595,1.346c0.472,1.181,1.187,2.922,1.445,5.23
						c0.11,1.148,0.058,2.456-0.385,3.767c-0.425,1.333-1.361,2.492-2.085,3.772c-0.743,1.268-1.07,2.827-0.84,4.404
						c0.227,1.575,1.009,3.098,2.303,4.209c1.249,1.14,2.773,2.098,3.633,3.62c0.846,1.501,1.065,3.134,1.331,4.603
						c0.25,1.48,0.572,2.864,1.239,3.99c0.64,1.141,1.539,2.013,2.441,2.665c1.834,1.301,3.702,1.688,4.947,1.718
						C319.121,175.711,319.812,175.51,319.822,175.569z"/>
				</g>
			</g>
			<g>
				<path style="fill:#455A64;" d="M348.948,127.767c0,0,0.117,0.116,0.167,0.41c0.059,0.288-0.023,0.767-0.387,1.205
					c-0.354,0.429-0.966,0.861-1.795,0.908c-0.825,0.02-1.678-0.341-2.542-0.761c-0.863-0.435-1.813-0.819-2.926-0.864
					c-1.103-0.069-2.293,0.1-3.541,0.322c-1.249,0.218-2.576,0.505-4.004,0.516c-1.408,0.019-2.995-0.404-4.107-1.499
					c-1.125-1.067-1.766-2.424-2.365-3.668c-0.595-1.253-1.151-2.464-1.914-3.441c-1.484-2.023-4.01-2.579-5.789-2.112
					c-1.834,0.462-2.938,1.712-3.491,2.583c-0.563,0.903-0.685,1.503-0.735,1.486c-0.016-0.004,0.004-0.153,0.076-0.431
					c0.078-0.275,0.218-0.679,0.485-1.158c0.519-0.93,1.619-2.289,3.573-2.836c0.961-0.26,2.096-0.281,3.222,0.064
					c1.131,0.322,2.229,1.067,3.036,2.108c0.821,1.031,1.398,2.273,1.997,3.517c0.601,1.238,1.232,2.537,2.26,3.508
					c1.013,0.993,2.417,1.375,3.753,1.37c1.352-0.003,2.661-0.271,3.921-0.479c1.259-0.21,2.49-0.371,3.654-0.28
					c1.171,0.063,2.218,0.512,3.057,0.964c0.848,0.441,1.647,0.792,2.372,0.8c0.718-0.011,1.308-0.378,1.648-0.749
					c0.352-0.379,0.456-0.793,0.436-1.062C348.999,127.914,348.918,127.778,348.948,127.767z"/>
			</g>
			<g>
				<path style="fill:#263238;" d="M343.333,124.883c-3.273-0.756-5.787-3.999-5.704-7.357c0.083-3.358,2.755-6.472,6.061-7.065
					c1.596-0.286,3.444,0.068,4.403,1.376c0.918,1.252,0.858,3.121,2.029,4.14c1.254,1.091,3.177,0.621,4.801,0.972
					c2.516,0.543,4.199,3.301,3.913,5.859c-0.286,2.558-2.249,4.743-4.631,5.718c-2.382,0.976-5.104,0.866-7.576,0.148
					c-2.472-0.718-4.736-2.007-6.924-3.364"/>
				<g>
					<path style="fill:#455A64;" d="M355.384,117.633c0.051,0.015-0.115,0.77-0.735,1.84c-0.612,1.068-1.754,2.402-3.363,3.41
						c-1.614,1.001-3.314,1.439-4.543,1.518c-1.234,0.085-1.985-0.098-1.976-0.15c0.007-0.09,0.758-0.041,1.934-0.216
						c1.174-0.169,2.77-0.641,4.309-1.594c1.534-0.962,2.659-2.186,3.328-3.166C355.014,118.295,355.301,117.599,355.384,117.633z"
						/>
				</g>
			</g>
			<g>
				<path style="fill:#F1A208;" d="M350.076,128.722c-0.13,0.11-1.663-2.447-4.749-4.186c-3.059-1.79-6.039-1.824-6.009-1.992
					c-0.001-0.058,0.733-0.137,1.909,0.023c1.172,0.156,2.779,0.613,4.359,1.517c1.577,0.909,2.781,2.066,3.507,3
					C349.825,128.019,350.127,128.693,350.076,128.722z"/>
			</g>
		</g>
		<g>
			<path style="fill:#FFBE9D;" d="M277.211,237.633l-16.168-3.147l2.917,4.151l-6.945,3.465l-5.797-2.714c0,0,0.422,1.27,1.69,3.388
				c1.268,2.118,2.96,3.813,4.06,3.898c1.647,0.128,1.94,0.151,0,0c0,0,0.355,1.969,2.147,3.88c1.069,1.14,3.88,2.936,7.305,2.022
				l10.888-3.934L277.211,237.633z"/>
			<g>
				<path style="fill:#EB996E;" d="M260.863,245.76c0.099,0.095-0.797,0.931-2.235,1.09c-1.436,0.173-2.499-0.438-2.424-0.553
					c0.055-0.143,1.086,0.195,2.365,0.036C259.85,246.197,260.777,245.633,260.863,245.76z"/>
			</g>
			<g>
				<path style="fill:#EB996E;" d="M262.976,249.214c0.102,0.092-0.592,0.876-1.796,1.185c-1.203,0.319-2.191-0.027-2.147-0.157
					c0.028-0.149,0.949-0.06,2.015-0.347C262.119,249.626,262.879,249.098,262.976,249.214z"/>
			</g>
			<g>
				<path style="fill:#EB996E;" d="M267.075,236.964c0.025,0.075-0.553,0.312-1.413,0.822c-0.868,0.498-1.985,1.316-3.268,2.193
					c-1.284,0.877-2.576,1.532-3.584,1.79c-1.006,0.273-1.659,0.212-1.659,0.152c-0.007-0.083,0.617-0.154,1.546-0.502
					c0.935-0.336,2.138-1.007,3.406-1.872c1.268-0.866,2.448-1.658,3.386-2.086C266.421,237.019,267.057,236.902,267.075,236.964z"
					/>
			</g>
		</g>
		<g>
			<path style="fill:#263238;" d="M365.398,264.539c0,0,0.555,0.346,1.931,2.8c4.233,7.549,5.943,25.644-10.015,41.788
				c-20.626,20.867-44.772,55-44.772,55l-18.961,80.158l-28.64-6.202l14.759-83.318l40.475-75.074L365.398,264.539z"/>
			<polygon style="fill:#263238;" points="396.994,419.683 352.873,352.161 339.488,293.879 305.411,310.625 322.503,369.783 
				377.03,437.705 			"/>
			<g>
				<path style="fill:#455A64;" d="M293.581,444.285c-0.009-0.002,0.014-0.136,0.066-0.396c0.06-0.283,0.142-0.664,0.245-1.149
					c0.233-1.035,0.566-2.515,0.992-4.406c0.89-3.849,2.167-9.371,3.743-16.183c3.215-13.677,7.646-32.526,12.54-53.347
					c0.384-1.623,0.765-3.233,1.121-4.737l0.013-0.055l0.035-0.044c12.506-15.991,23.891-30.144,32.276-40.195
					c4.197-5.021,7.625-9.032,10.055-11.742c1.197-1.371,2.173-2.391,2.819-3.095c0.314-0.333,0.561-0.594,0.746-0.79
					c0.17-0.176,0.26-0.263,0.266-0.257c0.006,0.006-0.071,0.105-0.229,0.292c-0.176,0.204-0.41,0.477-0.709,0.824
					c-0.622,0.725-1.573,1.766-2.747,3.156c-2.383,2.748-5.768,6.793-9.927,11.841c-8.31,10.106-19.645,24.294-32.141,40.286
					l0.048-0.1c-0.355,1.504-0.736,3.114-1.12,4.737c-4.952,20.806-9.436,39.644-12.689,53.312
					c-1.643,6.796-2.975,12.305-3.904,16.145c-0.467,1.882-0.832,3.354-1.087,4.384c-0.125,0.48-0.223,0.857-0.295,1.137
					C293.629,444.158,293.59,444.288,293.581,444.285z"/>
			</g>
			<g>
				<path style="fill:#455A64;" d="M345.321,285.853c0.013,0.03-0.229,0.175-0.694,0.381c-0.465,0.206-1.161,0.454-2.051,0.662
					c-1.765,0.423-4.374,0.585-7.078-0.202c-2.705-0.787-4.819-2.324-6.081-3.629c-0.638-0.653-1.093-1.236-1.374-1.66
					c-0.282-0.423-0.409-0.675-0.381-0.694c0.074-0.054,0.7,0.88,2.011,2.088c1.297,1.206,3.368,2.636,5.971,3.394
					c2.603,0.758,5.117,0.663,6.859,0.341C344.258,286.22,345.287,285.768,345.321,285.853z"/>
			</g>
		</g>
		<g>
			<path style="fill:#F1A208;" d="M369.646,267.949c-17.252,9.087-45.27,14.519-54.222,10.83l-0.314-33.245
				c0,0-12.275-20.237-12.321-27.887c-0.066-11.027,13.662-36.171,13.662-36.171l20.607-5.463c4.849-0.021,8.772,1.089,11.93,2.767
				c7.937,4.217,12.264,13.081,11.37,22.024l-5.19,33.07L369.646,267.949z"/>
			<g style="opacity:0.3;">
				<path d="M347.533,178.749c1.196-0.182,1.642,1.776,0.784,2.628c-0.858,0.852-2.195,0.9-3.39,1.087
					c-5.366,0.839-9.515,5.438-11.47,10.505c-1.955,5.067-2.136,10.614-2.457,16.036c-0.321,5.422-0.852,11.005-3.4,15.802
					c-4.741-8.406-5.481-18.96-1.958-27.945c3.523-8.985,11.237-16.224,20.429-19.168"/>
			</g>
			<path style="fill:#263238;" d="M348.988,178.78c0,0-2.965-4.891-12.914-2.767c-6.648,1.419-21.167,15.364-17.116,37.779
				c4.051,22.416,14.91,30.346,14.91,30.346s-9.991-34.309-4.442-49.283C334.974,179.882,348.988,178.78,348.988,178.78z"/>
			<g style="opacity:0.3;">
				<path d="M315.489,252.641c4.109,1.323,8.05,2.97,12.328,3.543c4.278,0.573,8.752,0.354,12.724-1.335
					c5.492-2.336,9.571-7.344,11.672-12.93c2.101-5.586,2.389-11.713,1.831-17.656c-3.757,4.636-3.301,11.51-6.491,16.553
					c-1.997,3.156-5.249,5.304-8.588,6.978C331.693,251.438,323.621,252.822,315.489,252.641"/>
			</g>
			<path style="fill:#263238;" d="M327.847,218.675c0,0-1.338,25.24,29.453,20.216l3.102,7.301c0,0-32.374,6.837-36.963-19.969
				L327.847,218.675z"/>
			<g>
				<path style="fill:#F1A208;" d="M355.906,187.296c2.688,3.835,3.388,8.725,2.283,13.276l-7.668,34.333
					c-3.295,9.66-12.684,15.523-18.518,16.309l-54.695,5.764v-20.383l50.769-7.542l2.381-27.802
					c0.209-3.74,2.054-10.461,4.432-13.355c2.659-3.235,6.75-7.637,13.426-6.518C352.414,182.063,354.147,184.786,355.906,187.296z"
					/>
				<g>
					<path style="fill:#263238;" d="M357.493,201.91c0.018,0.002-0.003,0.269-0.057,0.775c-0.053,0.506-0.145,1.25-0.274,2.208
						c-0.259,1.914-0.667,4.681-1.27,8.083c-0.599,3.402-1.395,7.44-2.419,11.893c-0.518,2.225-1.064,4.558-1.728,6.961
						c-0.672,2.397-1.485,4.868-2.681,7.246c-1.185,2.38-2.754,4.521-4.624,6.206c-1.859,1.695-3.935,2.996-6.02,3.966
						c-4.183,1.963-8.324,2.682-11.753,3.053c-3.447,0.353-6.248,0.373-8.178,0.392c-0.926-0.004-1.666-0.008-2.224-0.01
						c-0.508-0.01-0.775-0.023-0.776-0.041c0-0.018,0.266-0.039,0.774-0.064c0.557-0.022,1.296-0.051,2.221-0.087
						c1.927-0.082,4.722-0.158,8.142-0.556c3.403-0.415,7.488-1.167,11.589-3.121c2.045-0.965,4.071-2.249,5.881-3.908
						c1.819-1.65,3.34-3.729,4.504-6.065c1.174-2.333,1.981-4.771,2.655-7.15c0.667-2.383,1.223-4.715,1.752-6.932
						c1.047-4.439,1.879-8.462,2.524-11.851c0.648-3.388,1.111-6.143,1.431-8.046c0.154-0.913,0.278-1.642,0.371-2.192
						C357.421,202.169,357.476,201.907,357.493,201.91z"/>
				</g>
				<g>
					<path style="fill:#263238;" d="M329.552,234.904c-0.137,0.044-0.689-1.285-1.233-2.969c-0.544-1.685-0.875-3.086-0.738-3.13
						c0.137-0.044,0.689,1.285,1.233,2.97C329.359,233.459,329.689,234.86,329.552,234.904z"/>
				</g>
				<g>
					<path style="fill:#263238;" d="M332.661,234.122c-0.079,0.112-1.44-0.74-2.791-2.169c-1.358-1.424-2.139-2.826-2.023-2.899
						c0.125-0.084,1.078,1.155,2.4,2.54C331.563,232.986,332.751,234.002,332.661,234.122z"/>
				</g>
				<g>
					<path style="fill:#263238;" d="M282.07,235.886c-0.001-0.008,0.076-0.028,0.228-0.059c0.181-0.033,0.404-0.074,0.678-0.125
						c0.637-0.106,1.512-0.251,2.622-0.436c2.326-0.365,5.632-0.883,9.727-1.525c8.294-1.254,19.776-2.99,32.713-4.945l-0.219,0.23
						c0.181-1.895,0.372-3.9,0.566-5.932c0.659-7.217,1.349-14.081,1.688-20.352c0.254-3.15,0.847-6.107,1.7-8.785
						c0.855-2.668,1.975-5.102,3.575-6.924c3.244-3.531,6.87-5.404,9.541-5.741c1.331-0.195,2.378-0.06,3.068,0.055
						c0.343,0.075,0.6,0.154,0.773,0.201c0.173,0.049,0.26,0.079,0.257,0.087c-0.004,0.103-1.443-0.548-4.067-0.142
						c-2.601,0.387-6.14,2.281-9.295,5.783c-1.528,1.773-2.616,4.173-3.44,6.811c-0.824,2.647-1.396,5.581-1.633,8.69
						c-0.313,6.271-0.99,13.15-1.648,20.365c-0.195,2.032-0.388,4.038-0.57,5.933l-0.019,0.201l-0.2,0.029
						c-12.947,1.889-24.438,3.566-32.738,4.777c-4.105,0.576-7.419,1.041-9.75,1.368c-1.116,0.146-1.996,0.261-2.636,0.345
						c-0.277,0.031-0.503,0.057-0.685,0.077C282.151,235.891,282.071,235.894,282.07,235.886z"/>
				</g>
			</g>
			<g>
				<path style="fill:#FAFAFA;" d="M313.373,252.524c-0.143,0.014-0.723-4.611-1.295-10.329c-0.572-5.72-0.919-10.367-0.776-10.382
					c0.143-0.014,0.723,4.61,1.295,10.33C313.169,247.861,313.516,252.51,313.373,252.524z"/>
			</g>
			<g>
				<path style="fill:#FAFAFA;" d="M353.406,221.525c-0.001,0.072-1.329,0.087-3.476,0.054c-2.147-0.033-5.113-0.115-8.388-0.238
					c-3.276-0.123-6.24-0.263-8.383-0.391c-2.143-0.128-3.466-0.242-3.462-0.314c0.004-0.072,1.335-0.087,3.482-0.054
					c2.147,0.033,5.111,0.115,8.383,0.238c3.272,0.123,6.233,0.263,8.376,0.39S353.407,221.453,353.406,221.525z"/>
			</g>
			<g>
				<path style="fill:#FAFAFA;" d="M318.69,215.028c0.005,0.069-0.86,0.196-2.266,0.298c-1.406,0.103-3.355,0.171-5.507,0.13
					c-2.152-0.043-4.097-0.188-5.498-0.346c-1.401-0.158-2.26-0.318-2.253-0.387c0.008-0.074,0.879-0.043,2.281,0.02
					c1.403,0.064,3.339,0.15,5.48,0.193c2.14,0.041,4.078,0.032,5.482,0.023C317.814,214.95,318.685,214.953,318.69,215.028z"/>
			</g>
			<g>
				<path style="fill:#FAFAFA;" d="M323.209,191.279c-0.076,0.134-2.177-0.969-4.903-1.996c-2.722-1.04-5.025-1.609-4.993-1.759
					c0.022-0.132,2.41,0.216,5.178,1.273C321.263,189.841,323.281,191.165,323.209,191.279z"/>
			</g>
			<g>
				<path style="fill:#FAFAFA;" d="M362.928,253.674c0.006,0.017-0.148,0.093-0.447,0.222c-0.357,0.147-0.792,0.326-1.318,0.543
					c-1.147,0.467-2.826,1.093-4.916,1.822c-4.179,1.463-10.038,3.256-16.627,4.769c-6.593,1.506-12.649,2.44-17.048,2.942
					c-2.199,0.253-3.983,0.419-5.219,0.498c-0.568,0.034-1.037,0.062-1.423,0.085c-0.326,0.014-0.497,0.012-0.499-0.006
					c-0.001-0.018,0.167-0.051,0.49-0.099c0.383-0.049,0.849-0.109,1.413-0.182c1.228-0.141,3.003-0.363,5.192-0.662
					c4.378-0.594,10.405-1.583,16.978-3.084c6.569-1.508,12.425-3.24,16.626-4.61c2.101-0.683,3.796-1.256,4.963-1.663
					c0.539-0.18,0.985-0.329,1.351-0.451C362.755,253.7,362.922,253.657,362.928,253.674z"/>
			</g>
			<g>
				<path style="fill:#FAFAFA;" d="M359.667,193.866c-0.005,0.144-5.9,0.07-13.166-0.165c-7.268-0.235-13.155-0.542-13.15-0.685
					c0.005-0.144,5.899-0.07,13.167,0.165C353.784,193.416,359.672,193.723,359.667,193.866z"/>
			</g>
			<g>
				<path style="fill:#FAFAFA;" d="M289.204,255.491c-0.144,0.006-0.432-4.462-0.644-9.976c-0.212-5.517-0.267-9.992-0.123-9.997
					c0.144-0.005,0.432,4.461,0.644,9.977C289.293,251.01,289.348,255.486,289.204,255.491z"/>
			</g>
		</g>
	</g>
</g>
<g id="Character_1">
	<g>
		<g>
			<g>
				<g>
					<path style="fill:#455A64;" d="M177.331,153.222c8.836-1.669,18.154-0.697,26.455,2.759c3.715,1.547,7.39,3.737,9.398,7.224
						c2.374,4.125,1.983,9.205,1.727,13.958c-0.521,9.667-0.183,19.379,1.007,28.987c0.99,7.998,2.573,15.962,2.546,24.021
						c-0.027,8.059-1.83,16.417-6.883,22.695c-7.788,9.678-21.665,12.39-33.979,10.747c-6.482-0.865-12.954-2.806-18.237-6.66
						c-5.283-3.854-9.259-9.81-9.709-16.334"/>
				</g>
			</g>
			<g>
				<g>
					<path style="fill:#263238;" d="M192.749,165.481c-0.092,0.078,1.515,1.462,2.921,4.47c0.715,1.49,1.361,3.354,1.981,5.465
						c0.635,2.105,1.263,4.469,2.312,6.832c1.053,2.355,2.517,4.44,4.312,5.842c1.773,1.434,3.872,2.031,5.58,1.99
						c1.724-0.016,3.065-0.569,3.84-1.114c0.397-0.263,0.67-0.517,0.835-0.704c0.167-0.186,0.245-0.29,0.229-0.305
						c-0.043-0.045-0.404,0.336-1.198,0.79c-0.784,0.456-2.074,0.908-3.701,0.866c-1.622-0.024-3.545-0.618-5.205-1.999
						c-1.675-1.349-3.067-3.35-4.088-5.636c-1.021-2.297-1.664-4.635-2.333-6.74c-0.655-2.111-1.36-3.999-2.144-5.494
						c-0.775-1.5-1.602-2.606-2.245-3.294C193.2,165.758,192.774,165.453,192.749,165.481z"/>
				</g>
			</g>
			<g>
				<g>
					<path style="fill:#263238;" d="M196.279,262.995c0.023,0.003,0.074-0.269,0.15-0.788c0.078-0.589,0.179-1.343,0.303-2.275
						c0.251-1.977,0.578-4.841,0.953-8.384c0.752-7.085,1.659-16.887,2.43-27.732c0.768-10.848,1.255-20.681,1.512-27.802
						c0.129-3.56,0.21-6.442,0.241-8.434c0.009-0.939,0.016-1.7,0.022-2.294c-0.002-0.525-0.015-0.801-0.037-0.801
						c-0.023-0.001-0.055,0.274-0.096,0.797c-0.038,0.593-0.086,1.352-0.146,2.289c-0.111,2.073-0.264,4.929-0.45,8.423
						c-0.376,7.112-0.936,16.934-1.704,27.776c-0.771,10.837-1.604,20.639-2.236,27.733c-0.309,3.485-0.561,6.334-0.744,8.402
						c-0.074,0.936-0.133,1.695-0.179,2.287C196.263,262.716,196.256,262.992,196.279,262.995z"/>
				</g>
			</g>
			<g>
				<g>
					<path style="fill:#263238;" d="M200.227,219.569c-0.019,0.174,3.864,0.711,8.691,0.832c4.828,0.13,8.732-0.205,8.723-0.38
						c-0.008-0.189-3.905-0.151-8.706-0.281C204.136,219.621,200.245,219.38,200.227,219.569z"/>
				</g>
			</g>
			<g>
				<g>
					<path style="fill:#263238;" d="M203.375,219.947c-0.081-0.031-0.433,0.624-0.806,1.763c-0.185,0.571-0.372,1.255-0.52,2.043
						c-0.068,0.398-0.127,0.862,0.018,1.358c0.143,0.508,0.577,0.973,1.18,1.077c0.303,0.052,0.663-0.045,0.887-0.256
						c0.237-0.209,0.353-0.486,0.409-0.729c0.111-0.498,0.048-0.933,0.015-1.323c-0.081-0.795-0.231-1.501-0.396-2.079
						c-0.334-1.159-0.709-1.808-0.785-1.777c-0.093,0.035,0.122,0.736,0.33,1.883c0.102,0.573,0.199,1.259,0.244,2.023
						c0.02,0.386,0.051,0.783-0.037,1.12c-0.083,0.343-0.292,0.527-0.568,0.485c-0.681-0.119-0.835-0.962-0.696-1.689
						c0.109-0.755,0.246-1.444,0.37-2.015C203.27,220.687,203.465,219.98,203.375,219.947z"/>
				</g>
			</g>
		</g>
		<g>
			<g>
				<path style="fill:#263238;" d="M168.197,155.641l41.838,1.382c5.295,0.175,9.73-3.976,9.905-9.271l0.269-8.134
					c0.175-5.295-3.976-9.73-9.271-9.905l-41.838-1.382c-5.295-0.175-9.73,3.976-9.905,9.271l-0.269,8.134
					C158.751,151.031,162.902,155.466,168.197,155.641z"/>
			</g>
			<g>
				<g>
					<path style="fill:#455A64;" d="M209.943,130.242c0.009-0.018-0.111-0.104-0.362-0.226c-0.251-0.121-0.643-0.264-1.17-0.359
						c-1.039-0.191-2.689-0.104-4.383,0.818c-1.65,0.89-3.606,2.218-4.95,4.404c-1.377,2.133-2.138,4.888-2.346,7.759
						c-0.266,2.898,0.369,5.734,1.605,7.941c1.225,2.228,3.039,3.78,4.739,4.625c1.706,0.866,3.265,1.125,4.318,1.142
						c0.529,0.019,0.94-0.019,1.214-0.06c0.275-0.042,0.416-0.075,0.414-0.098c-0.005-0.059-0.584,0-1.612-0.099
						c-1.021-0.094-2.508-0.417-4.116-1.298c-1.606-0.866-3.286-2.37-4.424-4.504c-1.147-2.12-1.735-4.81-1.48-7.598
						c0.205-2.803,0.919-5.436,2.204-7.488c1.233-2.078,3.082-3.4,4.654-4.315c1.585-0.929,3.12-1.078,4.127-0.975
						C209.396,130.02,209.919,130.302,209.943,130.242z"/>
				</g>
			</g>
			<g>
				<path style="fill:#455A64;" d="M186.39,128.801l6.364,0.323c-1.737,0.21-3.326,1.185-4.49,2.491
					c-1.164,1.306-1.932,2.924-2.456,4.594c-2.208,7.045,0.459,15.384,6.044,20.213l-5.147-0.086
					C186.705,156.336,174.171,141.223,186.39,128.801"/>
			</g>
		</g>
	</g>
	<g>
		<g>
			<path style="fill:#263238;" d="M155.305,116.818c-2.598-6.283-2.735-17.213,1.238-22.959c3.973-5.746,11.408-9.54,18.238-11.008
				c1.141-0.245,2.37-0.41,3.446,0.043c1.076,0.454,1.879,1.738,1.418,2.811c1.372-0.857,2.777-1.728,4.354-2.09
				c1.577-0.362,3.385-0.128,4.545,1c1.16,1.128,1.342,3.259,0.113,4.311c1.905-0.695,4.2-0.155,5.595,1.317
				c1.395,1.472,1.811,3.792,1.014,5.657c-0.763,1.786-2.385,3.781-3.816,5.093c-1.432,1.312-1.668,2.674-1.432,4.602"/>
		</g>
		<g>
			<g>
				<g>
					<g>
						<g>
							<g>
								<g>
									<g>
										<g>
											<g>
												<g>
													<g>
														<g>
															<g>
																<g>
																	<g>
																		<path style="fill:#FFBE9D;" d="M156.944,105.293l-1.808,38.475c-0.307,6.543,4.923,12.012,11.473,11.996l0,0
																			c6.113-0.015,11.138-4.832,11.418-10.938c0.133-2.896,0.25-5.311,0.283-5.608c0,0,9.838-0.461,11.001-10.122
																			c0.562-4.669,0.936-14.379,1.173-23.168c0.255-9.439-6.794-17.487-16.181-18.499l-0.933-0.101
																			C163.242,86.831,157.161,95.155,156.944,105.293z"/>
																	</g>
																</g>
															</g>
														</g>
													</g>
												</g>
											</g>
										</g>
									</g>
									<g>
										<g>
											<g>
												<g>
													<g>
														<g>
															<g>
																<g>
																	<g>
																		<path style="fill:#EB996E;" d="M178.341,139.08c0,0-6.167-0.162-12.225-4.945c0,0,1.929,6.053,11.676,6.223
																			L178.341,139.08z"/>
																	</g>
																</g>
															</g>
														</g>
													</g>
												</g>
											</g>
										</g>
									</g>
								</g>
							</g>
						</g>
						<g>
							<g>
								<g>
									<g>
										<g>
											<g>
												<g>
													<g>
														<g>
															<g>
																<g>
																	<g>
																		<g>
																			<g>
																				<g>
																					<path style="fill:#263238;" d="M186.967,112.104c-0.053,0.732-0.716,1.291-1.482,1.25
																						c-0.764-0.041-1.343-0.667-1.29-1.399c0.053-0.732,0.717-1.292,1.481-1.251
																						C186.442,110.744,187.02,111.371,186.967,112.104z"/>
																				</g>
																			</g>
																		</g>
																	</g>
																</g>
															</g>
														</g>
													</g>
												</g>
												<g>
													<g>
														<g>
															<g>
																<g>
																	<g>
																		<g>
																			<g>
																				<g>
																					<g>
																						<path style="fill:#263238;" d="M187.894,110.452c-0.191,0.161-1.154-0.726-2.641-0.882
																							c-1.483-0.178-2.657,0.47-2.798,0.27c-0.071-0.089,0.139-0.396,0.651-0.69
																							c0.505-0.294,1.339-0.543,2.264-0.439c0.925,0.105,1.668,0.53,2.078,0.927
																							C187.868,110.038,187.987,110.38,187.894,110.452z"/>
																					</g>
																				</g>
																			</g>
																		</g>
																	</g>
																</g>
															</g>
														</g>
													</g>
												</g>
											</g>
											<g>
												<g>
													<g>
														<g>
															<g>
																<g>
																	<g>
																		<g>
																			<g>
																				<g>
																					<path style="fill:#263238;" d="M172.333,111.036c-0.053,0.732-0.717,1.291-1.482,1.25
																						c-0.764-0.041-1.343-0.667-1.29-1.399c0.053-0.732,0.717-1.292,1.481-1.251
																						C171.807,109.677,172.385,110.304,172.333,111.036z"/>
																				</g>
																			</g>
																		</g>
																	</g>
																</g>
															</g>
														</g>
													</g>
												</g>
												<g>
													<g>
														<g>
															<g>
																<g>
																	<g>
																		<g>
																			<g>
																				<g>
																					<g>
																						<path style="fill:#263238;" d="M173.251,109.153c-0.191,0.162-1.156-0.726-2.641-0.882
																							c-1.483-0.178-2.657,0.469-2.798,0.27c-0.07-0.089,0.137-0.395,0.652-0.69
																							c0.505-0.294,1.338-0.543,2.264-0.44c0.926,0.105,1.668,0.53,2.078,0.927
																							C173.223,108.739,173.344,109.081,173.251,109.153z"/>
																					</g>
																				</g>
																			</g>
																		</g>
																	</g>
																</g>
															</g>
														</g>
													</g>
												</g>
											</g>
											<g>
												<g>
													<g>
														<g>
															<g>
																<g>
																	<g>
																		<g>
																			<g>
																				<g>
																					<path style="fill:#263238;" d="M177.458,120.76c0.002-0.085,0.943-0.145,2.461-0.175
																						c0.384,0.002,0.751-0.035,0.843-0.287c0.119-0.265,0.004-0.691-0.132-1.153
																						c-0.258-0.957-0.528-1.96-0.811-3.012c-1.115-4.284-1.879-7.789-1.706-7.833
																						c0.173-0.043,1.217,3.394,2.332,7.677c0.266,1.055,0.521,2.061,0.762,3.024
																						c0.097,0.447,0.291,0.963,0.036,1.511c-0.133,0.273-0.434,0.448-0.684,0.488
																						c-0.251,0.048-0.465,0.029-0.654,0.02C178.39,120.939,177.454,120.845,177.458,120.76z"/>
																				</g>
																			</g>
																		</g>
																	</g>
																</g>
															</g>
														</g>
													</g>
												</g>
											</g>
											<g>
												<g>
													<g>
														<g>
															<g>
																<g>
																	<g>
																		<g>
																			<g>
																				<g>
																					<path style="fill:#263238;" d="M172.972,121.316c0.243,0.012,0.072,1.626,1.33,2.92
																						c1.255,1.298,2.994,1.302,2.983,1.529c0.012,0.104-0.417,0.272-1.145,0.214c-0.715-0.052-1.73-0.393-2.5-1.185
																						c-0.767-0.793-1.028-1.77-1.012-2.438C172.639,121.675,172.862,121.295,172.972,121.316z"/>
																				</g>
																			</g>
																		</g>
																	</g>
																</g>
															</g>
														</g>
													</g>
												</g>
											</g>
										</g>
									</g>
								</g>
								<g>
									<g>
										<g>
											<g>
												<g>
													<g>
														<g>
															<g>
																<g>
																	<path style="fill:#263238;" d="M174.264,103.368c-0.19,0.388-1.654,0.037-3.421,0.059
																		c-1.768-0.013-3.229,0.346-3.421-0.042c-0.085-0.185,0.202-0.538,0.813-0.868c0.606-0.33,1.545-0.604,2.605-0.608
																		c1.059-0.001,2,0.268,2.608,0.595C174.059,102.831,174.347,103.184,174.264,103.368z"/>
																</g>
															</g>
														</g>
													</g>
												</g>
											</g>
										</g>
									</g>
								</g>
								<g>
									<g>
										<g>
											<g>
												<g>
													<g>
														<g>
															<g>
																<g>
																	<path style="fill:#263238;" d="M187.811,106.09c-0.298,0.31-1.284-0.151-2.514-0.301
																		c-1.224-0.192-2.299-0.018-2.501-0.397c-0.087-0.183,0.114-0.503,0.604-0.774c0.483-0.27,1.262-0.449,2.106-0.333
																		c0.843,0.118,1.544,0.503,1.935,0.895C187.839,105.575,187.945,105.938,187.811,106.09z"/>
																</g>
															</g>
														</g>
													</g>
												</g>
											</g>
										</g>
									</g>
								</g>
							</g>
						</g>
					</g>
				</g>
			</g>
			<g>
				<g>
					<g>
						<g>
							<g>
								<g>
									<g>
										<g>
											<g>
												<g>
													<path style="fill:#FFBE9D;" d="M156.961,112.541c-0.157-0.089-6.435-2.683-6.937,3.954
														c-0.502,6.636,6.264,5.771,6.29,5.582C156.34,121.887,156.961,112.541,156.961,112.541z"/>
												</g>
											</g>
										</g>
									</g>
								</g>
							</g>
						</g>
					</g>
				</g>
				<g>
					<g>
						<g>
							<g>
								<g>
									<g>
										<g>
											<g>
												<g>
													<g>
														<path style="fill:#EB996E;" d="M154.478,119.409c-0.028-0.023-0.122,0.072-0.324,0.147
															c-0.197,0.073-0.529,0.108-0.866-0.048c-0.682-0.31-1.188-1.468-1.13-2.667c0.029-0.605,0.199-1.171,0.449-1.631
															c0.239-0.47,0.579-0.786,0.937-0.822c0.357-0.055,0.591,0.176,0.658,0.368c0.075,0.192,0.023,0.321,0.057,0.336
															c0.017,0.018,0.151-0.1,0.118-0.379c-0.017-0.134-0.083-0.296-0.23-0.436c-0.149-0.142-0.379-0.225-0.627-0.217
															c-0.514-0.003-1.011,0.433-1.286,0.938c-0.303,0.505-0.508,1.14-0.541,1.819c-0.059,1.34,0.531,2.644,1.47,2.993
															c0.458,0.157,0.858,0.046,1.071-0.096C154.454,119.569,154.5,119.423,154.478,119.409z"/>
													</g>
												</g>
											</g>
										</g>
									</g>
								</g>
							</g>
						</g>
					</g>
				</g>
			</g>
			<g>
				<g>
					<path style="fill:#263238;" d="M195.675,93.728c0.118,8.663-10.753,11.444-15.036,6.278c-1.98-2.389-3.644-5.313-6.495-6.539
						c-1.919-0.825-4.171-0.634-6.098,0.174c-0.019,0.008-0.038,0.016-0.058,0.024c-2.842,1.212-4.699,4.255-5.356,7.273
						c-0.916,4.209-0.522,8.013-1.925,11.834c-0.201,0.549-0.435,1.138-0.934,1.443c-0.847,0.517-1.968-0.079-2.573-0.866
						c-0.969-1.26-1.218-2.92-1.329-4.506c-0.253-3.612,0.053-7.294,1.221-10.721c1.168-3.427,3.228-6.593,6.099-8.8
						c3.587-2.758,8.319-3.879,12.81-3.324c4.491,0.554,8.718,2.719,12.016,5.817c1.53,1.437,2.901,3.123,3.557,5.117"/>
				</g>
			</g>
		</g>
		<g>
			<g>
				<path style="fill:#455A64;" d="M189.01,88.458c0-0.019,0.336-0.054,0.915,0.109c0.574,0.159,1.378,0.579,2.099,1.388
					c0.71,0.803,1.33,2.016,1.391,3.468c0.062,1.452-0.539,3.022-1.603,4.275c-1.069,1.257-2.458,2.099-3.805,2.526
					c-1.347,0.441-2.627,0.539-3.681,0.527c-1.058-0.022-1.903-0.149-2.479-0.266c-0.576-0.117-0.885-0.22-0.879-0.251
					c0.014-0.093,1.29,0.192,3.355,0.156c1.027-0.033,2.258-0.167,3.532-0.612c1.272-0.429,2.564-1.233,3.566-2.41
					c0.993-1.171,1.555-2.614,1.523-3.932c-0.03-1.323-0.567-2.469-1.196-3.248c-0.639-0.784-1.361-1.226-1.889-1.434
					C189.329,88.543,189.003,88.509,189.01,88.458z"/>
			</g>
		</g>
		<g>
			<g>
				<path style="fill:#455A64;" d="M184.802,85.08c0-0.026,0.249-0.055,0.624,0.16c0.363,0.213,0.809,0.722,0.926,1.496
					c0.117,0.777-0.187,1.684-0.7,2.502c-0.514,0.818-1.177,1.659-2.011,2.4c-1.659,1.503-3.568,2.321-4.976,2.645
					c-1.415,0.347-2.326,0.263-2.324,0.215c-0.008-0.092,0.882-0.138,2.228-0.563c1.343-0.402,3.141-1.238,4.729-2.676
					c0.799-0.708,1.444-1.505,1.956-2.271c0.507-0.762,0.796-1.549,0.74-2.21c-0.056-0.662-0.396-1.141-0.682-1.374
					C185.017,85.165,184.792,85.122,184.802,85.08z"/>
			</g>
		</g>
	</g>
	<g>
		<path style="fill:#FFBE9D;" d="M156.678,179.57l3.117-22.74l-44.697,8.973l-40.669-14.1l-10.985,11.289l43.279,22.29
			c3.859,1.843,8.208,2.398,12.406,1.582L156.678,179.57z"/>
		<path style="fill:#FFBE9D;" d="M74.428,151.704c0,0-15.552-7.44-16.547-7.689c-0.767-0.192-12.513-0.816-17.862-1.093
			c-2.123-0.11-2.438,3.043-0.331,3.329c0.065,0.009,0.132,0.016,0.201,0.022c2.986,0.249,9.561,1.744,9.561,1.744l-2.986,6.994
			c-0.306,0.716-0.08,1.548,0.546,2.011l9.049,6.692c2.414,1.094,5.228,0.82,7.384-0.721l0,0l3.989,0.817L74.428,151.704z"/>
		<g>
			<path style="fill:#FFBE9D;" d="M46.419,155.419c0.286,1.31,3.405,3.984,5.771,3.977c0.518-0.001,1.053-0.152,1.427-0.51
				c0.374-0.358,0.547-0.947,0.332-1.417c-0.141-0.308-0.418-0.528-0.685-0.736c-1.766-1.371-3.531-2.743-5.297-4.114"/>
			<g>
				<path style="fill:#EB996E;" d="M47.966,152.619c0.044-0.057,0.886,0.515,2.212,1.485c0.706,0.526,1.48,1.104,2.312,1.725
					c0.435,0.345,0.879,0.634,1.364,1.075c0.236,0.223,0.446,0.588,0.446,0.967c0.012,0.375-0.121,0.735-0.346,1.029
					c-0.48,0.592-1.222,0.772-1.849,0.746c-0.638-0.019-1.22-0.192-1.735-0.412c-1.033-0.443-1.85-1.037-2.469-1.599
					c-0.62-0.563-1.045-1.102-1.271-1.518c-0.231-0.418-0.24-0.698-0.211-0.699c0.043-0.009,0.115,0.231,0.383,0.59
					c0.264,0.36,0.713,0.84,1.339,1.347c0.624,0.505,1.435,1.044,2.409,1.434c0.485,0.194,1.02,0.338,1.566,0.347
					c0.532,0.021,1.109-0.153,1.428-0.556c0.323-0.422,0.329-0.978-0.053-1.319c-0.384-0.359-0.886-0.715-1.294-1.053
					c-0.808-0.653-1.559-1.26-2.244-1.813C48.685,153.35,47.922,152.676,47.966,152.619z"/>
			</g>
		</g>
		<g>
			<path style="fill:#EB996E;" d="M58.983,159.456c-0.046,0.042-0.349-0.177-0.676-0.677c-0.327-0.494-0.637-1.289-0.681-2.205
				c-0.041-0.917,0.195-1.737,0.476-2.259c0.28-0.527,0.561-0.774,0.611-0.736c0.132,0.078-0.665,1.286-0.567,2.971
				C58.203,158.236,59.107,159.367,58.983,159.456z"/>
		</g>
		<g>
			<path style="fill:#FFBE9D;" d="M52.764,155.865c0.472,0.734,1.449,1.099,2.286,0.854c0.837-0.245,1.464-1.079,1.466-1.951
				c0.003-1.141-0.91-2.048-1.757-2.812c-1.298-1.171-2.596-2.343-3.894-3.514"/>
			<g>
				<path style="fill:#EB996E;" d="M50.866,148.443c0.048-0.053,0.668,0.419,1.632,1.225c0.529,0.454,1.087,0.932,1.675,1.436
					c0.611,0.556,1.348,1.11,1.963,1.922c0.299,0.406,0.539,0.876,0.607,1.38c0.083,0.498-0.033,1.015-0.258,1.412
					c-0.447,0.818-1.319,1.218-2.004,1.16c-0.691-0.039-1.173-0.365-1.425-0.627c-0.259-0.268-0.316-0.472-0.291-0.485
					c0.036-0.024,0.151,0.137,0.424,0.332c0.265,0.193,0.719,0.424,1.297,0.412c0.568,0.003,1.232-0.35,1.576-1.019
					c0.369-0.66,0.211-1.542-0.346-2.256c-0.542-0.723-1.268-1.298-1.865-1.874c-0.561-0.533-1.094-1.039-1.6-1.519
					C51.351,149.065,50.818,148.496,50.866,148.443z"/>
			</g>
		</g>
		<g>
			<path style="fill:#FFBE9D;" d="M59.426,147.853c-3.132,0.744-6.142,2.003-8.871,3.711c-0.163,0.102-0.337,0.221-0.389,0.406
				c-0.073,0.259,0.126,0.514,0.336,0.682c0.803,0.641,1.91,0.75,2.934,0.665c1.024-0.085,2.036-0.337,3.064-0.314
				c1.778,0.039,3.424,0.89,5.138,1.363c1.715,0.472,3.804,0.461,4.981-0.873"/>
			<g>
				<path style="fill:#EB996E;" d="M66.619,153.492c0.013,0.012-0.042,0.093-0.162,0.24c-0.127,0.14-0.332,0.336-0.646,0.522
					c-0.616,0.387-1.688,0.663-2.976,0.531c-1.305-0.098-2.724-0.721-4.292-1.181c-0.787-0.226-1.625-0.389-2.496-0.338
					c-0.877,0.042-1.792,0.261-2.785,0.325c-0.98,0.056-2.037-0.072-2.846-0.684c-0.199-0.15-0.415-0.341-0.5-0.668
					c-0.041-0.163-0.01-0.364,0.083-0.506c0.09-0.144,0.204-0.232,0.306-0.302c0.39-0.247,0.749-0.455,1.118-0.666
					c1.464-0.825,2.855-1.431,4.045-1.869c1.191-0.438,2.182-0.708,2.871-0.867c0.69-0.159,1.08-0.207,1.087-0.176
					c0.023,0.087-1.503,0.439-3.825,1.386c-1.158,0.477-2.512,1.108-3.94,1.942c-0.352,0.207-0.728,0.434-1.073,0.658
					c-0.163,0.118-0.205,0.193-0.18,0.287c0.025,0.111,0.15,0.26,0.314,0.372c0.662,0.498,1.591,0.626,2.51,0.573
					c0.929-0.058,1.853-0.274,2.791-0.315c0.946-0.048,1.85,0.141,2.656,0.387c1.614,0.505,2.97,1.141,4.198,1.276
					c1.222,0.17,2.229-0.034,2.837-0.343C66.333,153.775,66.581,153.453,66.619,153.492z"/>
			</g>
		</g>
		<g>
			<path style="fill:#EB996E;" d="M115.793,173.669c-0.131,0.035-0.662-1.739-0.723-4.005c-0.072-2.267,0.355-4.067,0.488-4.041
				c0.151,0.023-0.038,1.817,0.033,4.026C115.649,171.857,115.942,173.638,115.793,173.669z"/>
		</g>
	</g>
	<g>
		<path style="fill:#F1A208;" d="M154.901,146.277l-12.684,14.293c0,0-6.774,49.355-7.258,53.226
			c-0.484,3.871-1.77,16.269-1.77,19.656c0,3.387-2.812,27.622-2.812,27.622s53.816,11.174,62.82,0l-2.801-20.75l2.438-51.476
			c0,0,4.036-35.729-14.806-44.022C178.027,144.826,166.116,152.007,154.901,146.277z"/>
		<path style="fill:#263238;" d="M186.668,149.893c0,0-3.713-3.666-15.564-0.596c-12.49,3.236-19.081,14.927-15.982,48.026
			c2.555,27.292,13.35,31.221,13.35,31.221s-5.913-41.17-4.897-58.392c1.283-21.753,23.092-16.337,23.092-16.337
			C189.774,152.81,186.668,149.893,186.668,149.893z"/>
		<polygon style="fill:#F1A208;" points="154.901,146.277 143.937,149.297 119.275,164.395 126.298,186.696 140.78,185.11 		"/>
		<g>
			<path style="fill:#263238;" d="M140.634,161.76c0.143,0.013-0.481,7.986-1.393,17.805c-0.913,9.822-1.769,17.771-1.912,17.758
				c-0.143-0.013,0.481-7.984,1.394-17.806C139.635,169.697,140.491,161.747,140.634,161.76z"/>
		</g>
		<path style="fill:#263238;" d="M190.833,231.066c0,0-3.503,11.252-15.878-7.326c-12.374-18.578-10.633-10.27-10.633-10.27
			l-2.536,3.017c0,0,13.61,30.657,28.881,25.852L190.833,231.066z"/>
		<polygon style="opacity:0.3;" points="140.135,167.123 130.376,186.249 138.44,185.366 		"/>
		<g style="opacity:0.3;">
			<path d="M135.66,217.907c7.152,7.796,15.669,14.337,25.047,19.235c3.936,2.055,8.281,3.865,12.685,3.302
				c4.837-0.619,8.985-4.127,11.27-8.435c2.286-4.308,1.958-6.387,2.503-11.232c0.6-5.34,0.602-12.466,0.883-17.335
				c0.05-0.863,0.066-1.863,0.066-2.81c-0.001-2.115,1.381-3.977,3.407-4.586l0,0c0,0-2.95-1.388-4.927-1.107
				c-1.977,0.281-3.474,1.928-4.509,3.635c-5.486,9.048-3.097,22.314-13.568,27.948c-3.416,1.838-7.401,2.272-11.229,1.647
				c-8.568-1.398-15.129-7.032-21.448-12.522"/>
		</g>
		<ellipse style="fill:#FAFAFA;" cx="147.499" cy="184.898" rx="4.746" ry="14.283"/>
	</g>
	<g>
		<g>
			<path style="fill:#F1A208;" d="M150.038,433.263l1.089,23.51c0,0-23.531,9.003-23.753,13.367l45.66-0.474l-0.193-36.701
				L150.038,433.263z"/>
			<g style="opacity:0.6;">
				<path style="fill:#FFFFFF;" d="M165.225,454.648c0.886,0.232,1.507,1.22,1.311,2.115c-0.196,0.895-1.194,1.535-2.085,1.318
					c-0.89-0.217-1.672-1.379-1.377-2.246c0.295-0.867,1.508-1.555,2.32-1.131"/>
			</g>
			<path style="opacity:0.6;fill:#FFFFFF;" d="M173.034,469.667l-0.019-3.66l-43.862,1.798c0,0-2.024,0.905-1.779,2.335
				L173.034,469.667z"/>
			<g>
				<path style="fill:#263238;" d="M150.384,456.549c0.01,0.223,1.125,0.312,2.23,1.018c1.123,0.677,1.698,1.637,1.903,1.546
					c0.205-0.046-0.141-1.375-1.493-2.206C151.679,456.065,150.334,456.345,150.384,456.549z"/>
			</g>
			<g>
				<path style="fill:#263238;" d="M145.616,458.579c-0.049,0.217,0.921,0.586,1.688,1.521c0.795,0.912,0.996,1.93,1.218,1.918
					c0.21,0.033,0.351-1.275-0.625-2.419C146.931,458.446,145.618,458.367,145.616,458.579z"/>
			</g>
			<g>
				<path style="fill:#263238;" d="M142.955,464.339c0.203,0.046,0.502-1.072-0.083-2.287c-0.577-1.22-1.633-1.69-1.725-1.504
					c-0.124,0.185,0.56,0.833,1.025,1.838C142.66,463.38,142.733,464.32,142.955,464.339z"/>
			</g>
			<g>
				<path style="fill:#263238;" d="M150.731,451.163c0.096,0.202,1.115-0.116,2.376-0.043c1.263,0.047,2.248,0.46,2.362,0.267
					c0.127-0.163-0.839-0.978-2.325-1.043C151.658,450.269,150.619,450.99,150.731,451.163z"/>
			</g>
		</g>
		<polygon style="opacity:0.3;" points="150.259,437.92 150.448,442.109 172.887,441.672 172.876,437.895 		"/>
		<g>
			<path style="fill:#263238;" d="M150.598,446.416c-0.001,0.092,0.881,0.221,2.287-0.035c0.7-0.129,1.523-0.366,2.385-0.76
				c0.431-0.197,0.87-0.433,1.306-0.711c0.209-0.137,0.457-0.276,0.685-0.545c0.245-0.235,0.379-0.828,0.09-1.187
				c-0.238-0.348-0.653-0.496-0.982-0.5c-0.337-0.007-0.609,0.063-0.856,0.127c-0.507,0.129-0.982,0.302-1.417,0.503
				c-0.868,0.406-1.572,0.915-2.094,1.406c-1.049,0.992-1.402,1.829-1.325,1.871c0.102,0.072,0.61-0.631,1.68-1.452
				c0.533-0.408,1.216-0.832,2.028-1.17c0.407-0.167,0.845-0.311,1.309-0.419c0.482-0.132,0.894-0.14,1.02,0.074
				c0.046,0.082,0.052,0.114-0.048,0.257c-0.103,0.132-0.298,0.262-0.504,0.398c-0.401,0.268-0.805,0.501-1.201,0.703
				c-0.792,0.404-1.551,0.681-2.202,0.87C151.454,446.225,150.593,446.296,150.598,446.416z"/>
		</g>
		<g>
			<path style="fill:#263238;" d="M150.892,446.733c0.079,0.033,0.513-0.77,0.58-2.215c0.031-0.716-0.052-1.584-0.338-2.5
				c-0.145-0.457-0.341-0.924-0.597-1.382c-0.272-0.448-0.605-1.049-1.471-1.139c-0.452-0.012-0.824,0.344-0.949,0.648
				c-0.148,0.31-0.175,0.576-0.226,0.841c-0.078,0.534-0.063,1.057,0.014,1.54c0.154,0.97,0.56,1.775,1.001,2.352
				c0.905,1.174,1.838,1.431,1.856,1.355c0.073-0.113-0.709-0.535-1.403-1.665c-0.342-0.557-0.649-1.293-0.746-2.141
				c-0.049-0.423-0.047-0.871,0.028-1.322c0.066-0.486,0.244-0.879,0.427-0.832c0.227-0.006,0.617,0.356,0.808,0.741
				c0.239,0.407,0.43,0.824,0.579,1.234c0.295,0.822,0.428,1.611,0.467,2.277C151,445.863,150.77,446.7,150.892,446.733z"/>
		</g>
	</g>
	<g>
		<g>
			<path style="fill:#F1A208;" d="M194.279,418.987l18.462,14.596c0,0-8.635,23.668-5.486,26.698l29.586-34.781l-27.834-23.923
				L194.279,418.987z"/>
			<g style="opacity:0.6;">
				<path style="fill:#FFFFFF;" d="M220.383,421.547c0.757-0.517,1.909-0.338,2.456,0.397c0.547,0.735,0.376,1.908-0.372,2.438
					c-0.747,0.53-2.138,0.358-2.599-0.434c-0.462-0.791-0.185-2.159,0.668-2.493"/>
			</g>
			<path style="opacity:0.6;fill:#FFFFFF;" d="M236.841,425.5l-2.776-2.385l-27.407,34.292c0,0-0.644,2.121,0.596,2.874
				L236.841,425.5z"/>
			<g>
				<path style="fill:#263238;" d="M212.085,433.997c0.175,0.139,0.974-0.645,2.231-1.016c1.247-0.404,2.349-0.209,2.415-0.422
					c0.1-0.185-1.131-0.795-2.645-0.319C212.568,432.702,211.897,433.901,212.085,433.997z"/>
			</g>
			<g>
				<path style="fill:#263238;" d="M210.49,438.928c0.132,0.179,1.046-0.311,2.255-0.277c1.21-0.001,2.11,0.514,2.247,0.338
					c0.163-0.137-0.732-1.101-2.236-1.114C211.253,437.848,210.332,438.787,210.49,438.928z"/>
			</g>
			<g>
				<path style="fill:#263238;" d="M213.094,444.714c0.168-0.124-0.48-1.082-1.781-1.437c-1.299-0.365-2.347,0.124-2.267,0.316
					c0.058,0.215,0.996,0.124,2.06,0.432C212.176,444.308,212.934,444.869,213.094,444.714z"/>
			</g>
			<g>
				<path style="fill:#263238;" d="M208.246,430.204c0.215,0.06,0.644-0.918,1.526-1.823c0.863-0.922,1.821-1.395,1.751-1.608
					c-0.039-0.203-1.288-0.008-2.312,1.072C208.179,428.917,208.042,430.174,208.246,430.204z"/>
			</g>
		</g>
		<polygon style="opacity:0.3;" points="197.939,421.874 201.226,424.48 215.611,407.253 212.753,404.784 		"/>
		<g>
			<path style="fill:#263238;" d="M204.576,427.19c0.069,0.062,0.745-0.52,1.473-1.75c0.362-0.612,0.722-1.39,0.99-2.299
				c0.133-0.454,0.244-0.941,0.32-1.452c0.033-0.248,0.091-0.526,0.038-0.874c-0.017-0.339-0.376-0.829-0.837-0.846
				c-0.419-0.049-0.802,0.168-1.021,0.414c-0.226,0.249-0.351,0.501-0.465,0.73c-0.236,0.467-0.416,0.94-0.55,1.399
				c-0.263,0.922-0.34,1.787-0.312,2.503c0.061,1.443,0.461,2.258,0.543,2.228c0.122-0.029-0.076-0.874,0.005-2.22
				c0.041-0.67,0.169-1.464,0.446-2.298c0.141-0.416,0.319-0.842,0.542-1.262c0.217-0.451,0.481-0.766,0.725-0.721
				c0.092,0.019,0.12,0.035,0.162,0.204c0.032,0.164,0.002,0.396-0.03,0.641c-0.061,0.478-0.15,0.936-0.257,1.368
				c-0.215,0.863-0.503,1.618-0.787,2.233C204.993,426.419,204.481,427.115,204.576,427.19z"/>
		</g>
		<g>
			<path style="fill:#263238;" d="M205.007,427.176c0.077-0.038-0.245-0.892-1.292-1.89c-0.521-0.493-1.23-0.999-2.109-1.385
				c-0.44-0.19-0.921-0.349-1.435-0.456c-0.517-0.089-1.189-0.231-1.824,0.363c-0.306,0.333-0.28,0.848-0.133,1.141
				c0.137,0.315,0.32,0.51,0.486,0.722c0.352,0.41,0.757,0.741,1.172,0.999c0.833,0.52,1.707,0.741,2.432,0.787
				c1.48,0.087,2.285-0.449,2.24-0.512c-0.037-0.129-0.869,0.184-2.177-0.033c-0.645-0.107-1.402-0.358-2.105-0.841
				c-0.351-0.24-0.689-0.535-0.979-0.888c-0.323-0.369-0.504-0.761-0.348-0.867c0.144-0.175,0.673-0.232,1.089-0.124
				c0.464,0.087,0.904,0.216,1.311,0.372c0.814,0.317,1.497,0.734,2.025,1.141C204.421,426.524,204.903,427.246,205.007,427.176z"/>
		</g>
	</g>
	<g>
		<path style="fill:#263238;" d="M143.088,333.796c0,0,1.221-56.151,0-56.151c-1.221,0-9.877-4.943-9.877-4.943l-10.817,83.452
			c0,0-0.975,9.368,10.618,15.971c11.593,6.602,63.43,52.692,63.43,52.692l17.54-21.363c0,0-34.109-35.552-48.043-47.3
			C155.038,346.963,143.088,333.796,143.088,333.796z"/>
		<g>
			<path style="fill:#263238;" d="M174.865,320.714l1.181-8.891c0,0,8.545-17.97,9.765-25.667
				c1.221-7.698,0.415-24.252,0.415-24.252h-53.949c0,0,0.232,60.905,6.742,77.994c0,0,3.305,32.703,3.791,35.444
				c1.031,5.816,4.626,65.356,4.626,65.356l27.203-0.992c0,0,2.362-54.738,0.474-70.277c-0.935-7.695-1.378-15.895-1.581-22.679
				C173.273,338.047,173.718,329.346,174.865,320.714z"/>
			<g>
				<path style="fill:#455A64;" d="M133.752,279.666c0.009,0,0.021,0.091,0.035,0.268c0.013,0.208,0.03,0.467,0.05,0.788
					c0.035,0.732,0.082,1.745,0.143,3.029c0.102,2.631,0.296,6.437,0.567,11.136c0.542,9.4,1.549,22.369,3.034,36.658
					c1.482,14.294,3.075,27.208,4.227,36.554c0.568,4.644,1.03,8.415,1.355,11.07c0.147,1.277,0.263,2.284,0.346,3.013
					c0.031,0.32,0.057,0.578,0.077,0.785c0.014,0.177,0.018,0.269,0.009,0.27c-0.009,0.001-0.03-0.088-0.061-0.263
					c-0.034-0.205-0.076-0.461-0.128-0.779c-0.107-0.725-0.255-1.728-0.443-3c-0.364-2.65-0.882-6.415-1.519-11.05
					c-1.245-9.336-2.897-22.246-4.38-36.548c-1.487-14.296-2.436-27.281-2.884-36.692c-0.224-4.705-0.362-8.515-0.402-11.149
					c-0.019-1.286-0.034-2.3-0.045-3.033c0-0.322,0.001-0.581,0.001-0.789C133.737,279.758,133.743,279.667,133.752,279.666z"/>
			</g>
			<g>
				<path style="fill:#455A64;" d="M173.479,351.756c0.018-0.002,0.072,0.301,0.158,0.882c0.087,0.626,0.204,1.475,0.352,2.544
					c0.272,2.213,0.611,5.423,0.919,9.398c0.642,7.949,1.127,18.957,1.308,31.121c0.143,12.168-0.049,23.186-0.482,31.15
					c-0.204,3.982-0.458,7.2-0.673,9.419c-0.12,1.073-0.215,1.924-0.286,2.552c-0.071,0.583-0.117,0.887-0.135,0.885
					c-0.018-0.002-0.007-0.311,0.03-0.896c0.046-0.63,0.109-1.483,0.188-2.558c0.152-2.222,0.351-5.439,0.507-9.419
					c0.338-7.958,0.472-18.967,0.329-31.126c-0.181-12.154-0.607-23.154-1.154-31.101c-0.261-3.974-0.544-7.185-0.754-9.403
					c-0.107-1.073-0.192-1.924-0.254-2.553C173.48,352.067,173.461,351.759,173.479,351.756z"/>
			</g>
		</g>
	</g>
	<path style="fill:#263238;" d="M184.09,148.638c0,0,8.83,2.356,10.709,15.513c1.88,13.157-1.603,16.916-1.603,16.916
		s1.434-24.495-9.538-27.837l0.432-4.113"/>
	<g>
		<polygon style="fill:#263238;" points="123.931,191.615 78.346,190.733 78.878,192.943 123.71,193.602 		"/>
		<g>
			<path style="fill:#F1A208;" d="M179.195,152.769c-1.697-0.451-3.495-0.232-5.114,0.45c-3.695,1.555-10.453,6.025-10.935,18.638
				c-0.777,20.375-0.777,20.375-0.777,20.375l29.152,3.814C191.521,196.046,193.996,156.705,179.195,152.769z"/>
			<path style="fill:#FFBE9D;" d="M125.555,195.934l36.957,11.115l0.552-14.881l22.131,3.224l-1.234,24.196
				c-0.259,7.098-5.235,13.146-12.15,14.768l0,0c-3.868,0.907-7.935,0.32-11.388-1.643l-39.276-22.331L125.555,195.934z"/>
			<g>
				<path style="fill:#263238;" d="M191.521,196.046c-0.006-0.007-0.015-0.124-0.026-0.348c-0.011-0.25-0.025-0.574-0.042-0.982
					c-0.031-0.888-0.076-2.139-0.132-3.734c-0.104-3.25-0.252-7.894-0.434-13.619c-0.083-2.866-0.174-6.001-0.271-9.365
					c-0.023-0.841-0.047-1.697-0.071-2.566c-0.044-0.427-0.089-0.857-0.134-1.29c-0.09-0.427-0.156-0.863-0.266-1.292
					c-0.443-1.715-1.261-3.384-2.41-4.858c-2.3-2.911-6.002-5.128-10.086-5.202c-2.031-0.052-4.068,0.57-5.851,1.671
					c-1.791,1.095-3.305,2.668-4.517,4.456c-1.765,2.578-2.756,5.549-3.333,8.495c-0.575,2.958-0.761,5.913-0.904,8.778
					c-0.163,5.742-0.316,11.135-0.456,16.048l-0.191-0.223c8.72,1.19,15.968,2.179,21.072,2.875
					c2.529,0.355,4.525,0.635,5.925,0.832c0.664,0.097,1.186,0.173,1.572,0.229C191.325,196.005,191.514,196.038,191.521,196.046
					c0.008,0.009-0.166-0.007-0.51-0.044c-0.377-0.044-0.886-0.102-1.534-0.177c-1.391-0.169-3.373-0.409-5.885-0.714
					c-5.148-0.645-12.457-1.56-21.252-2.662l-0.196-0.025l0.005-0.199c0.121-4.913,0.209-10.308,0.396-16.061
					c0.136-2.872,0.316-5.85,0.896-8.853c0.58-2.989,1.592-6.036,3.407-8.688c1.247-1.839,2.81-3.465,4.677-4.605
					c1.852-1.145,4.005-1.799,6.13-1.74c4.274,0.089,8.082,2.396,10.456,5.416c1.185,1.531,2.026,3.264,2.476,5.042
					c0.112,0.444,0.179,0.895,0.269,1.338c0.044,0.45,0.088,0.897,0.132,1.34c0.019,0.879,0.038,1.744,0.057,2.595
					c0.069,3.398,0.133,6.566,0.192,9.461c0.099,5.734,0.18,10.386,0.237,13.642c0.022,1.571,0.039,2.804,0.051,3.678
					c0.002,0.393,0.004,0.705,0.005,0.946C191.531,195.948,191.527,196.053,191.521,196.046z"/>
			</g>
		</g>
		<path style="fill:#FFBE9D;" d="M126.298,196.365l-8.878-6.565c-1.619-1.197-4.144-0.954-6.149-1.135
			c-3.977-0.358-10.536,2.048-10.786,2.461l2.68,2.142l-17.256-0.53c0,0,1.484,3.603,6.309,3.974c0,0,0.557,3.896,5.566,4.639
			c0,0,1.299,3.154,4.082,4.082c0,0,0.557,3.525,5.01,3.34l15.113,1.713L126.298,196.365z"/>
		<g>
			<path style="fill:#EB996E;" d="M103.017,197.355c-0.008,0.144-2.455,0.116-5.465-0.061c-3.01-0.177-5.443-0.437-5.435-0.581
				c0.008-0.143,2.455-0.116,5.465,0.061C100.592,196.951,103.025,197.211,103.017,197.355z"/>
		</g>
		<g>
			<path style="fill:#EB996E;" d="M107.378,201.507c0,0.144-2.139,0.26-4.778,0.26c-2.639,0-4.778-0.117-4.778-0.26
				c0-0.144,2.139-0.26,4.778-0.26C105.238,201.246,107.378,201.363,107.378,201.507z"/>
		</g>
		<g>
			<path style="fill:#EB996E;" d="M112.072,205.433c0,0.144-2.139,0.26-4.778,0.26c-2.639,0-4.778-0.117-4.778-0.26
				s2.139-0.26,4.778-0.26C109.933,205.173,112.072,205.289,112.072,205.433z"/>
		</g>
		<g>
			<path style="fill:#EB996E;" d="M164.951,214.595c-0.13,0.055-0.924-1.547-1.644-3.625c-0.723-2.078-1.094-3.826-0.958-3.864
				c0.141-0.04,0.732,1.632,1.45,3.693C164.514,212.861,165.087,214.539,164.951,214.595z"/>
		</g>
		<g>
			<path style="fill:#EB996E;" d="M167.629,213.161c-0.119,0.087-1.313-1.357-2.79-3.127c-1.475-1.773-2.678-3.208-2.572-3.309
				c0.102-0.097,1.485,1.188,2.972,2.976C166.728,211.486,167.743,213.079,167.629,213.161z"/>
		</g>
	</g>
</g>
</svg>
